<svg width="100%" height="100%" version="1.1" 
  xmlns="http://www.w3.org/2000/svg" 
  xmlns:xlink="http://www.w3.org/1999/xlink" 
  xmlns:svgjs="http://svgjs.com/svgjs" 
style="stroke-linecap: round; stroke-linejoin: round; stroke-miterlimit: 20; background: rgba(79, 79, 79, 1);"
viewBox="-10.232639394760142 1.2879251480102543 110.84944741439821 66.77677555084229">
  <defs id="SvgjsDefs107858"></defs>
  <svg id="layer 1" style="overflow: visible;">
    <polygon id="P-0f-8305bc" points="-73.56544110655958,-6.485099022095191 -93.57513427734375,-16.53771228222525 -93.57498255807498,-41.44803491002704 -73.5761071435632,-51.60403823852539 -53.68963760435171,-41.06979154354664 -53.68967467212766,-16.443138752438045" style="stroke: rgb(255, 255, 255); stroke-opacity: 1; stroke-width: 0; fill: rgb(108, 85, 255); fill-opacity: 1;" transform="matrix(1,0,0,1,118.81076661877802,63.72092323877074)"></polygon>
  </svg>
  <svg id="layer 1" style="overflow: visible; pointer-events: all;" data-disabled="false" data-hidden="false">
    <polygon id="P-04-7eeede" points="41.14434814453125,-35.73592259733671 53.53243131510142,-51.60403823852539 66.5265587303078,-35.73585966835045" style="stroke: rgb(255, 255, 255); stroke-opacity: 1; stroke-width: 0; fill: rgb(108, 85, 255); fill-opacity: 1;" transform="matrix(1,0,0,1,-8.297940809200497,63.72120171167113)"></polygon>
    <polygon id="P-95-ab8011" points="-251.96711905225544,405.76481531616633 -239.57903633004184,389.8966979980469 -259.50653076171875,400.0522939781659" style="stroke: rgb(212, 212, 116); stroke-opacity: 1; stroke-width: 0; fill: rgb(98, 74, 255); fill-opacity: 1;" transform="matrix(1,0,0,1,284.813208025028,-377.7795230808093)"></polygon>
    <polygon id="P-8a-ce7072" points="-256.92476030188504,395.4331482088129 -252.5671564159232,389.8967590332031 -259.5065612792969,393.4325631762469" style="stroke: rgb(255, 255, 255); stroke-opacity: 1; stroke-width: 0px; fill: rgb(240, 240, 0); fill-opacity: 1;" transform="matrix(1,0,0,1,297.80119935803583,-377.77957648657105)"></polygon>
    <polygon id="P-6a-603ff0" points="41.91717529296875,-44.82491859430777 46.27477857325458,-50.36130905151367 50.843271554969576,-44.782487203790694" style="stroke: rgb(255, 255, 255); stroke-opacity: 1; stroke-width: 0px; fill: rgb(255, 255, 0); fill-opacity: 1;" transform="matrix(1,0,0,1,-1.0400729960901458,62.47840576745726)"></polygon>
    <polygon id="P-eb-4fba41" points="-591.6316416965864,400.43263552293934 -611.5184936523438,389.8956298828125 -598.5243700055313,405.7638087394281" style="stroke: rgb(212, 212, 116); stroke-opacity: 1; stroke-width: 0; fill: rgb(58, 27, 255); fill-opacity: 1;" transform="matrix(1,0,0,1,656.7530883961217,-377.7784358920886)"></polygon>
    <polygon id="P-ec-e2855b" points="-604.4665019128179,393.6348680879913 -611.5187377929688,389.8954162597656 -606.9504313751645,395.47423206414555" style="stroke: rgb(255, 255, 255); stroke-opacity: 1; stroke-width: 0px; fill: rgb(217, 217, 0); fill-opacity: 1;" transform="matrix(1,0,0,1,656.753149431278,-377.7788249912097)"></polygon>
    <polygon id="P-32-585bd1" points="-32.68989780371876,54.53960693371254 -40.21247514383745,73.83230238839852 -40.22930908203125,48.82708740234375" style="stroke: rgb(212, 212, 116); stroke-opacity: 1; stroke-width: 0; fill: rgb(78, 50, 255); fill-opacity: 1;" transform="matrix(1,0,0,1,65.53614846997431,-26.5543357791736)"></polygon>
    <polygon id="P-ea-c26f19" points="-27.765890992711498,68.22306253895557 -29.6630749029583,73.73629074308629 -29.67053985595703,66.78985595703125" style="stroke: rgb(255, 255, 255); stroke-opacity: 1; stroke-width: 0px; fill: rgb(219, 219, 0); fill-opacity: 1;" transform="matrix(1,0,0,1,54.96219960980585,-44.51677245519899)"></polygon>
    <polygon id="P-41-6c5372" points="-230.77441566369023,399.1171880540307 -228.0079177397304,395.3181457519531 -232.67898559570312,397.68398281334964" style="stroke: rgb(255, 255, 255); stroke-opacity: 1; stroke-width: 0px; fill: rgb(240, 240, 0); fill-opacity: 1;" transform="matrix(1,0,0,1,257.97077981763056,-375.4115135135486)"></polygon>
    <polygon id="P-03-aea871" points="55.80940194240716,-21.29233734456948 42.81558264386105,1.9366491308024436 30.42718505859375,-21.29239273071289" style="stroke: rgb(249, 249, 249); stroke-opacity: 1; stroke-width: 0; fill: rgb(93, 68, 255); fill-opacity: 1;" transform="matrix(1,0,0,1,2.419218462039737,49.277657323853745)"></polygon>
    <polygon id="P-a2-c66deb" points="-78.58601404332143,-21.29241943359375 -91.579833984375,1.9365692138671875 -71.6932755316867,-2.094257961888914" style="stroke: rgb(194, 194, 55); stroke-opacity: 1; stroke-width: 0; fill: rgb(64, 34, 255); fill-opacity: 1;" transform="matrix(1,0,0,1,136.8147644215124,49.27774887658812)"></polygon>
    <polygon id="P-13-12e0d2" points="-252.4240164171666,-21.29361343383789 -259.94659423828125,-2.000913489695428 -240.03561293198115,1.9354284276774436" style="stroke: rgb(212, 212, 116); stroke-opacity: 1; stroke-width: 0; fill: rgb(65, 36, 255); fill-opacity: 1;" transform="matrix(1,0,0,1,285.27055970959833,49.278878026978745)"></polygon>
    <polygon id="P-1b-52d5dd" points="-109.86864789647151,394.83505696720323 -105.86534329221037,389.7201232910156 -112.43521118164062,392.88637895363263" style="stroke: rgb(255, 255, 255); stroke-opacity: 1; stroke-width: 0px; fill: rgb(240, 240, 0); fill-opacity: 1;" transform="matrix(1,0,0,1,142.71470491223505,-366.8497878970935)"></polygon>
    <polygon id="P-cf-82c7d3" points="41.14434814453125,143.8505148270571 45.14765318092873,138.73558044433594 49.19349304886437,143.85057775605395" style="stroke: rgb(255, 255, 255); stroke-opacity: 1; stroke-width: 0px; fill: rgb(255, 255, 0); fill-opacity: 1;" transform="matrix(1,0,0,1,-8.29788168139288,-115.86521071813844)"></polygon>
    <polygon id="P-44-f29897" points="-37.662330355303936,274.2592878136112 -40.22930908203125,280.90123619365835 -40.228856510518014,272.31060791015625" style="stroke: rgb(255, 255, 255); stroke-opacity: 1; stroke-width: 0px; fill: rgb(219, 219, 0); fill-opacity: 1;" transform="matrix(1,0,0,1,70.50829545788935,-246.27408141515994)"></polygon>
    <polygon id="P-71-2dde58" points="345.2841237391134,255.40428463003786 341.28325428792147,263.00136405997193 337.23492431640625,255.40420532226562" style="stroke: rgb(255, 255, 255); stroke-opacity: 1; stroke-width: 0px; fill: rgb(233, 233, 0); fill-opacity: 1;" transform="matrix(1,0,0,1,-304.38839109606573,-227.41892165563846)"></polygon>
    <polygon id="P-ed-f670e0" points="-109.86760101498909,255.40237426757812 -112.4345703125,262.04436030813457 -105.81926893992657,262.9995327393306" style="stroke: rgb(255, 255, 255); stroke-opacity: 1; stroke-width: 0px; fill: rgb(199, 199, 0); fill-opacity: 1;" transform="matrix(1,0,0,1,142.7137779407995,-227.41709441564822)"></polygon>
    <polygon id="P-be-24f889" points="339.0071402512406,143.99528205971345 343.4409913327567,138.8890073528491 347.56166906848665,143.9953370148301" style="stroke: rgb(255, 255, 255); stroke-opacity: 1; stroke-width: 0px; fill: rgb(255, 255, 0); fill-opacity: 1;" transform="matrix(1,0,0,1,-289.332788068722,-116.01000518224977)"></polygon>
    <polygon id="P-44-9dab76" points="38.981505271499124,255.40263099266778 34.74006625000063,262.99105132402946 30.427001953125,255.402587890625" style="stroke: rgb(255, 255, 255); stroke-opacity: 1; stroke-width: 0px; fill: rgb(233, 233, 0); fill-opacity: 1;" transform="matrix(1,0,0,1,19.247198503543643,-227.41674727819705)"></polygon>
    <polygon id="P-cc-28ed75" points="-71.6875288947798,-0.3649940490722656 -91.57396909760294,9.687537441774843 -91.5740966796875,3.6658300812172113" style="stroke: rgb(181, 181, 0); stroke-opacity: 1; stroke-width: 0; fill: rgb(28, 0, 210); fill-opacity: 1;" transform="matrix(1,0,0,1,136.80895082287958,47.548472696320786)"></polygon>
    <polygon id="P-80-46a2ac" points="202.90740966796875,49.279720306396484 222.8184982885004,59.23776925159958 222.8183844991076,53.21606498572182" style="stroke: rgb(181, 181, 0); stroke-opacity: 1; stroke-width: 0; fill: rgb(31, 0, 231); fill-opacity: 1;" transform="matrix(1,0,0,1,-177.5838409251673,-2.0017749728991845)"></polygon>
    <polygon id="P-f4-96e7da" points="-604.628200611745,49.881587982177734 -604.6281799227627,74.41091959263989 -611.5209350585938,55.212759007478475" style="stroke: rgb(212, 212, 116); stroke-opacity: 1; stroke-width: 0; fill: rgb(34, 0, 255); fill-opacity: 1;" transform="matrix(1,0,0,1,669.7481445484655,-27.227387613280044)"></polygon>
    <polygon id="P-ce-be190f" points="-86.37930256002946,130.17971801757812 -91.57395530494784,132.83476123160966 -91.5740966796875,131.13542668154403" style="stroke: rgb(255, 255, 255); stroke-opacity: 1; stroke-width: 0; fill: rgb(148, 148, 0); fill-opacity: 1;" transform="matrix(1,0,0,1,151.50090638928583,-82.99651641271852)"></polygon>
    <polygon id="P-62-800457" points="-88.58646509112499,33.1395263671875 -91.579833984375,39.99961467614154 -86.38504649630596,39.04390619394116" style="stroke: rgb(255, 255, 255); stroke-opacity: 1; stroke-width: 0px; fill: rgb(174, 174, 0); fill-opacity: 1;" transform="matrix(1,0,0,1,151.50671617322138,8.139624410645737)"></polygon>
    <polygon id="P-cf-5b1b64" points="447.27069091796875,169.48748779296875 453.425500804907,172.58181560000597 453.39103985831053,170.71167590421345" style="stroke: rgb(255, 255, 255); stroke-opacity: 1; stroke-width: 0; fill: rgb(168, 168, 0); fill-opacity: 1;" transform="matrix(1,0,0,1,-421.947721082638,-122.20955962560915)"></polygon>
    <polygon id="P-d5-52f1d1" points="53.435733844421485,50.34173671648441 51.04522705078125,56.340499507276796 51.04959587431603,47.93817138671875" style="stroke: rgb(255, 255, 255); stroke-opacity: 1; stroke-width: 0px; fill: rgb(219, 219, 0); fill-opacity: 1;" transform="matrix(1,0,0,1,-25.721351224849908,-9.062525934202895)"></polygon>
    <polygon id="P-82-c9652d" points="-12.5850189269933,26.71356201171875 -14.97552490234375,32.71232695223398 -8.855192177644977,33.93651501347872" style="stroke: rgb(255, 255, 255); stroke-opacity: 1; stroke-width: 0px; fill: rgb(199, 199, 0); fill-opacity: 1;" transform="matrix(1,0,0,1,40.299180429508,14.565636449830308)"></polygon>
    <polygon id="P-05-9d71b2" points="-606.3254204642868,392.5777810795288 -611.52001953125,389.8305358886719 -608.152215888124,393.978361419457" style="stroke: rgb(255, 255, 255); stroke-opacity: 1; stroke-width: 0px; fill: rgb(217, 217, 0); fill-opacity: 1;" transform="matrix(1,0,0,1,671.4469360523717,-369.92364806555054)"></polygon>
    <polygon id="P-65-dc4e21" points="-11.03754727165937,255.402587890625 -15.27899169921875,262.99100830094375 -8.655980116837181,262.0547578972169" style="stroke: rgb(255, 255, 255); stroke-opacity: 1; stroke-width: 0px; fill: rgb(174, 174, 0); fill-opacity: 1;" transform="matrix(1,0,0,1,69.26610652737787,-227.41778869055057)"></polygon>
    <polygon id="P-83-a568bf" points="-522.3100162374913,393.3352711015022 -528.5399169921875,389.8772277832031 -524.4192085421977,394.98355054475894" style="stroke: rgb(255, 255, 255); stroke-opacity: 1; stroke-width: 0px; fill: rgb(217, 217, 0); fill-opacity: 1;" transform="matrix(1,0,0,1,582.6485962086217,-366.9982063236072)"></polygon>
    <polygon id="P-fd-19c6d4" points="-530.7881470581456,272.317626953125 -530.5158128038889,280.6180763050307 -532.8973388671875,273.96590600147306" style="stroke: rgb(255, 255, 255); stroke-opacity: 1; stroke-width: 0; fill: rgb(160, 160, 0); fill-opacity: 1;" transform="matrix(1,0,0,1,591.1263794117467,-245.98120040319705)"></polygon>
    <polygon id="P-6d-d11ce8" points="40.267160949170744,-19.881269214705398 35.510839530116286,-11.448730456327562 30.98736572265625,-19.9169921875" style="stroke: rgb(255, 255, 255); stroke-opacity: 1; stroke-width: 0px; fill: rgb(233, 233, 0); fill-opacity: 1;" transform="matrix(1,0,0,1,9.73461572461298,62.65552216150023)"></polygon>
    <polygon id="P-67-99de5a" points="-88.08852610460286,-21.159423828125 -92.8448486328125,-12.72688344537094 -85.53696353404065,-14.205473435715255" style="stroke: rgb(255, 255, 255); stroke-opacity: 1; stroke-width: 0px; fill: rgb(174, 174, 0); fill-opacity: 1;" transform="matrix(1,0,0,1,138.09005967908075,63.93368225671507)"></polygon>
    <polygon id="P-12-7bde95" points="-256.860944426256,-21.160888671875 -259.69683837890625,-14.166813362084891 -252.33747088936778,-12.692626965547436" style="stroke: rgb(255, 255, 255); stroke-opacity: 1; stroke-width: 0px; fill: rgb(199, 199, 0); fill-opacity: 1;" transform="matrix(1,0,0,1,297.5823730640905,63.89941864587523)"></polygon>
    <polygon id="P-9b-5cf6fb" points="-609.7600332477989,50.0550537109375 -609.7864151496807,58.36293401659377 -611.9878540039062,52.45855277482068" style="stroke: rgb(255, 255, 255); stroke-opacity: 1; stroke-width: 0; fill: rgb(160, 160, 0); fill-opacity: 1;" transform="matrix(1,0,0,1,674.9085449390905,-11.179501718504653)"></polygon>
    <polygon id="P-1b-6865c7" points="-609.694131890576,50.228511810302734 -609.6940629272823,56.793586989719955 -611.5209350585938,51.62909399406141" style="stroke: rgb(255, 255, 255); stroke-opacity: 1; stroke-width: 0; fill: rgb(160, 160, 0); fill-opacity: 1;" transform="matrix(1,0,0,1,674.813940446903,-27.57440108679079)"></polygon>
    <polygon id="P-1e-5f01c9" points="203.34051513671875,48.8353271484375 210.6487393059513,52.47275406516957 210.64866172226994,50.27815667076995" style="stroke: rgb(255, 255, 255); stroke-opacity: 1; stroke-width: 0; fill: rgb(168, 168, 0); fill-opacity: 1;" transform="matrix(1,0,0,1,-165.41378172106573,4.763279729859605)"></polygon>
    <polygon id="P-0f-f3ef87" points="-84.18009725510097,-1.1450196504592896 -91.57400327722117,2.6044419960651957 -91.57408905029297,0.4098445691637087" style="stroke: rgb(255, 255, 255); stroke-opacity: 1; stroke-width: 0; fill: rgb(148, 148, 0); fill-opacity: 1;" transform="matrix(1,0,0,1,136.80896226697138,54.63157951213576)"></polygon>
    <polygon id="P-8a-dad01d" points="-82.99093750478227,0.48925794641049725 -90.30908203125,4.150865924401983 -90.29882029634118,1.9678475765839198" style="stroke: rgb(255, 255, 255); stroke-opacity: 1; stroke-width: 0; fill: rgb(148, 148, 0); fill-opacity: 1;" transform="matrix(1,0,0,1,135.5438446217077,49.238940694706216)"></polygon>
    <polygon id="P-92-868083" points="203.15936279296875,48.5716552734375 210.50846872325357,52.228861327207326 210.51873045864093,50.04584215753224" style="stroke: rgb(255, 255, 255); stroke-opacity: 1; stroke-width: 0; fill: rgb(168, 168, 0); fill-opacity: 1;" transform="matrix(1,0,0,1,-165.27382810778448,1.1610019741222999)"></polygon>
  </svg>
</svg>