<svg width="100%" height="100%" version="1.1" 
  xmlns="http://www.w3.org/2000/svg" 
  xmlns:xlink="http://www.w3.org/1999/xlink" 
  xmlns:svgjs="http://svgjs.com/svgjs" 
style="stroke-linecap: round; stroke-linejoin: round; stroke-miterlimit: 20; background: rgba(21, 8, 35, 1);"
viewBox="16.3538875579834 43.81308364868164 38.52689552307129 34.091487884521484">
  <svg id="S-af-83f1e2" style="overflow: visible; pointer-events: all;">
    <polygon id="P-d2-496a9c" points="21.212632365146657,16.55533790588379 37.05629784848283,16.55533790588379 48.367219984152634,35.168068016277765 47.056538286673344,43.88600435827318 42.069323099905944,47.59435083329936 16.304738924015414,47.59435083329936 11.321956971774334,43.88600435827318 9.840368270874023,35.20874640334674" style="stroke: rgb(255, 255, 255); stroke-opacity: 1; stroke-width: 0; fill: rgb(212, 212, 212); fill-opacity: 1;" transform="matrix(1,0,0,1,6.513535499572754,27.257746696472168)"></polygon>
  </svg>
  <svg id="layer 2" style="overflow: visible;">
    <polygon id="P-be-4415ab" points="30.068227767944336,57.18311120942182 55.83280567450954,57.18310546875 52.42901237552395,60.235558449282436 33.21611628996701,60.20074127472021" style="stroke: rgb(255, 255, 255); stroke-opacity: 1; stroke-width: 0; fill: rgb(90, 90, 90); fill-opacity: 1;" transform="matrix(1,0,0,1,-7.249939918518066,17.669010162353516)"></polygon>
    <polygon id="P-26-07d7f2" points="25.715935492104485,35.032184496013656 17.927445914653426,17.26486835693872 18.500201321164162,13.941051483154297 29.81112387566217,32.55378761374371 28.50044246225756,41.271570432974315 23.51321687506658,44.97991753556947 16.51963233947754,39.505510439224736" style="stroke: rgb(255, 255, 255); stroke-opacity: 1; stroke-width: 0; fill: rgb(186, 186, 186); fill-opacity: 1;" transform="matrix(1,0,0,1,25.069661140441895,29.8721866607666)"></polygon>
    <polygon id="P-19-9ef588" points="35.65814208984375,10.176637649536133 51.50181110246288,10.176637649536133 50.92905852209289,13.500451911442866 43.580539182003676,12.391118841004964 36.13143752881085,13.574276944876923" style="stroke: rgb(255, 255, 255); stroke-opacity: 1; stroke-width: 0; fill: rgb(214, 214, 214); fill-opacity: 1;" transform="matrix(1,0,0,1,-7.93202018737793,33.63654375076294)"></polygon>
    <polygon id="P-ac-a5c911" points="29.645180667709027,39.308079261465316 20.571083812720044,34.834752217250525 28.34908614100369,17.14116777061268 27.875790680283014,13.743523597717285 16.503524780273438,32.396947018862065 17.985129129325383,41.074139689888895 22.96791779095032,44.782487705206236" style="stroke: rgb(255, 255, 255); stroke-opacity: 1; stroke-width: 0; fill: rgb(255, 255, 255); fill-opacity: 1;" transform="matrix(1,0,0,1,-0.14963722229003906,30.069610118865967)"></polygon>
    <polygon id="P-49-746228" points="23.584627151489258,37.25329386154309 31.362638788562972,19.559751417540056 38.811730092442446,18.411623001098633 46.16025919903702,19.485926391237726 53.948753300631495,37.25329386154309 44.752451584425955,41.726619720458984 32.658721471902076,41.726619720458984" style="stroke: rgb(255, 255, 255); stroke-opacity: 1; stroke-width: 0; fill: rgb(0, 0, 0); fill-opacity: 1;" transform="matrix(1,0,0,1,-3.1631784439086914,27.65107822418213)"></polygon>
    <polygon id="P-4f-7ba222" points="25.043660090896715,38.147369652043416 28.005232856332015,30.601422456107272 25.970259171098487,27.158058166503906 20.957902908325195,38.14704817439729" style="stroke: rgb(255, 255, 255); stroke-opacity: 1; stroke-width: 0; fill: rgb(255, 255, 255); fill-opacity: 1;" transform="matrix(1,0,0,1,3.996302604675293,23.82067108154297)"></polygon>
  </svg>
  <defs id="SvgjsDefs112529"></defs>
</svg>