<svg width="100%" height="100%" version="1.1" 
  xmlns="http://www.w3.org/2000/svg" 
  xmlns:xlink="http://www.w3.org/1999/xlink" 
  xmlns:svgjs="http://svgjs.com/svgjs" 
style="stroke-linecap: round; stroke-linejoin: round; stroke-miterlimit: 20; background: rgba(21, 8, 35, 1);"
viewBox="-16.161381034851075 55.756465911865234 497.7234578704834 299.8334083557129">
  <svg id="S-51-b3ad37" style="overflow: visible; pointer-events: all;" data-hidden="false" data-disabled="false">
    <g id="G-eb-0830ae" transform="matrix(1,0,0,1,72.07452011108398,41.28293991088867)">
      <circle id="C-a2-0c63a5" r="17.970943450927734" cx="0" cy="0" style="stroke: rgb(255, 255, 255); stroke-opacity: 1; stroke-width: 0; fill: rgb(170, 170, 170); fill-opacity: 1;" transform="matrix(1,0,0,1,32.818851470947266,32.4444694519043)"></circle>
      <ellipse id="E-b2-e35887" rx="5.7795491218566895" ry="2.7728476524353027" cx="0" cy="0" style="stroke: rgb(255, 255, 255); stroke-opacity: 1; stroke-width: 0; fill: rgb(144, 144, 144); fill-opacity: 1;" transform="matrix(0.8512239456176758,0.5248026251792908,-0.5248026251792908,0.8512239456176758,39.75579833984375,20.77541160583496)"></ellipse>
      <ellipse id="E-b4-428c02" rx="4.320866107940674" ry="5.10390043258667" cx="0" cy="0" style="stroke: rgb(255, 255, 255); stroke-opacity: 1; stroke-width: 0; fill: rgb(144, 144, 144); fill-opacity: 1;" transform="matrix(0.38415378332138067,0.9232692122459413,-0.9232692122459413,0.38415378332138067,37.105438232421875,38.074520111083984)"></ellipse>
      <ellipse id="E-bc-cb3c63" rx="3.411440372467041" ry="1.2055028676986694" cx="0" cy="0" style="stroke: rgb(255, 255, 255); stroke-opacity: 1; stroke-width: 0; fill: rgb(144, 144, 144); fill-opacity: 1;" transform="matrix(0.6865965127944946,-0.7270386219024658,0.7270386219024658,0.6865965127944946,44.59089279174805,42.64348220825195)"></ellipse>
      <ellipse id="E-14-9f877b" rx="5.557328224182129" ry="6.564433574676514" cx="0" cy="0" style="stroke: rgb(255, 255, 255); stroke-opacity: 1; stroke-width: 0; fill: rgb(144, 144, 144); fill-opacity: 1;" transform="matrix(1,0,0,1,25.524316787719727,32.44443893432617)"></ellipse>
      <ellipse id="E-74-689832" rx="4.218099117279053" ry="2.0237114429473877" cx="0" cy="0" style="stroke: rgb(255, 255, 255); stroke-opacity: 1; stroke-width: 0; fill: rgb(144, 144, 144); fill-opacity: 1;" transform="matrix(-0.999383568763733,0.0351049266755581,-0.0351049266755581,-0.999383568763733,32.818885803222656,46.37473678588867)"></ellipse>
      <ellipse id="E-4c-395853" rx="3.4114396572113037" ry="1.2055037021636963" cx="0" cy="0" style="stroke: rgb(255, 255, 255); stroke-opacity: 1; stroke-width: 0; fill: rgb(144, 144, 144); fill-opacity: 1;" transform="matrix(0.9518058896064759,-0.30670133233070374,0.30670133233070374,0.9518058896064759,27.464853286743164,17.765308380126953)"></ellipse>
    </g>
    <g id="G-f3-a7b5dd" transform="matrix(1,0,0,1,221.06258392333984,162.53674221038818)">
      <circle id="C-40-dd0fe3" r="8.681018829345703" cx="0" cy="0" style="stroke: rgb(255, 255, 255); stroke-opacity: 1; stroke-width: 0; fill: rgb(255, 94, 0); fill-opacity: 1;" transform="matrix(1,0,0,1,148.73464965820312,5.618348121643066)"></circle>
      <ellipse id="E-95-7872bb" rx="2.791860818862915" ry="1.33944833278656" cx="0" cy="0" style="stroke: rgb(255, 255, 255); stroke-opacity: 1; stroke-width: 0; fill: rgb(255, 200, 0); fill-opacity: 1;" transform="matrix(-0.6607184639921364,0.750633793890585,-0.750633793890585,-0.6607184639921364,153.7261962890625,9.871124267578125)"></ellipse>
      <ellipse id="E-fa-41aac4" rx="2.0872304439544678" ry="2.465481996536255" cx="0" cy="0" style="stroke: rgb(255, 255, 255); stroke-opacity: 1; stroke-width: 0; fill: rgb(255, 200, 0); fill-opacity: 1;" transform="matrix(-0.9747944554548559,0.22310522234114408,-0.22310522234114408,-0.9747944554548559,145.70492553710938,7.2011942863464355)"></ellipse>
      <ellipse id="E-bd-6bbca3" rx="1.6479250192642212" ry="0.5823289155960083" cx="0" cy="0" style="stroke: rgb(255, 255, 255); stroke-opacity: 1; stroke-width: 0; fill: rgb(255, 200, 0); fill-opacity: 1;" transform="matrix(0.600963925090829,0.7992760370433817,-0.7992760370433817,0.600963925090829,142.9202117919922,10.39356517791748)"></ellipse>
      <ellipse id="E-83-9784e5" rx="2.684516191482544" ry="3.171006441116333" cx="0" cy="0" style="stroke: rgb(255, 255, 255); stroke-opacity: 1; stroke-width: 0; fill: rgb(255, 200, 0); fill-opacity: 1;" transform="matrix(-0.16848479211330417,0.9857042431831361,-0.9857042431831361,-0.16848479211330417,149.32827758789062,2.1450393199920654)"></ellipse>
      <ellipse id="E-41-03787b" rx="2.037590265274048" ry="0.977571427822113" cx="0" cy="0" style="stroke: rgb(255, 255, 255); stroke-opacity: 1; stroke-width: 0; fill: rgb(255, 200, 0); fill-opacity: 1;" transform="matrix(0.13377784392936845,-0.9910112124461047,0.9910112124461047,0.13377784392936845,142.10162353515625,4.4846062660217285)"></ellipse>
      <ellipse id="E-5c-e00212" rx="1.647925853729248" ry="0.5823286771774292" cx="0" cy="0" style="stroke: rgb(255, 255, 255); stroke-opacity: 1; stroke-width: 0; fill: rgb(255, 200, 0); fill-opacity: 1;" transform="matrix(0.14195201660200585,0.989873619311653,-0.989873619311653,0.14195201660200585,156.15980529785156,4.26373815536499)"></ellipse>
    </g>
    <g id="G-18-71b7f9" transform="matrix(1,0,0,1,-10.831535339355469,265.5652961730957)">
      <circle id="C-c7-1fca75" r="10.002238273620605" cx="0" cy="0" style="stroke: rgb(255, 255, 255); stroke-opacity: 1; stroke-width: 0; fill: rgb(255, 255, 255); fill-opacity: 1;" transform="matrix(1,0,0,1,171.17477416992188,80.02234649658203)"></circle>
      <ellipse id="E-04-0023b8" rx="3.2167704105377197" ry="1.543305516242981" cx="0" cy="0" style="stroke: rgb(255, 255, 255); stroke-opacity: 1; stroke-width: 0; fill: rgb(243, 233, 255); fill-opacity: 1;" transform="matrix(0.8512239456176759,0.5248026251792908,-0.5248026251792908,0.8512239456176759,175.0357208251953,73.52764892578125)"></ellipse>
      <ellipse id="E-18-0e097e" rx="2.4049015045166016" ry="2.8407199382781982" cx="0" cy="0" style="stroke: rgb(255, 255, 255); stroke-opacity: 1; stroke-width: 0; fill: rgb(243, 233, 255); fill-opacity: 1;" transform="matrix(0.384153813123703,0.9232692122459413,-0.9232692122459413,0.384153813123703,173.56068420410156,83.15589904785156)"></ellipse>
      <ellipse id="E-4e-203702" rx="1.8987349271774292" ry="0.6709576845169067" cx="0" cy="0" style="stroke: rgb(255, 255, 255); stroke-opacity: 1; stroke-width: 0; fill: rgb(243, 233, 255); fill-opacity: 1;" transform="matrix(0.6865965127944947,-0.727038562297821,0.727038562297821,0.6865965127944947,177.72677612304688,85.6988754272461)"></ellipse>
      <ellipse id="E-9f-c0728a" rx="3.0930893421173096" ry="3.6536221504211426" cx="0" cy="0" style="stroke: rgb(255, 255, 255); stroke-opacity: 1; stroke-width: 0; fill: rgb(243, 233, 255); fill-opacity: 1;" transform="matrix(1,0,0,1,167.11477661132812,80.02234649658203)"></ellipse>
      <ellipse id="E-09-7cc159" rx="2.347702741622925" ry="1.1263551712036133" cx="0" cy="0" style="stroke: rgb(255, 255, 255); stroke-opacity: 1; stroke-width: 0; fill: rgb(243, 233, 255); fill-opacity: 1;" transform="matrix(-0.9993835091590881,0.03510493040084839,-0.03510493040084839,-0.9993835091590881,171.17477416992188,87.77559661865234)"></ellipse>
      <ellipse id="E-f1-abaac8" rx="1.898732304573059" ry="0.6709572076797485" cx="0" cy="0" style="stroke: rgb(255, 255, 255); stroke-opacity: 1; stroke-width: 0; fill: rgb(243, 233, 255); fill-opacity: 1;" transform="matrix(0.9518058896064758,-0.3067013621330261,0.3067013621330261,0.9518058896064758,168.19491577148438,71.85230255126953)"></ellipse>
    </g>
  </svg>
  <svg id="S-55-4825d7" style="overflow: visible; pointer-events: all;" data-disabled="false" data-hidden="false">
    <g id="G-27-d28800" transform="matrix(1,0,0,1,73.75991439819336,138.72544479370117)">
      <circle id="C-c1-5813b8" r="49.091270446777344" cx="0" cy="0" style="stroke: rgb(255, 255, 255); stroke-opacity: 1; stroke-width: 0; fill: rgb(144, 83, 205); fill-opacity: 1;" transform="matrix(1,0,0,1,176.4930419921875,89.50857543945312)"></circle>
      <ellipse id="E-89-02c4bf" rx="11.803325653076172" ry="13.942344665527344" cx="0" cy="0" style="stroke: rgb(255, 255, 255); stroke-opacity: 1; stroke-width: 0; fill: rgb(96, 55, 136); fill-opacity: 1;" transform="matrix(0.884953498840332,-0.4656794369220733,0.4656794369220733,0.884953498840332,196.6417236328125,75.29611206054688)"></ellipse>
      <ellipse id="E-06-ef8776" rx="15.180971145629883" ry="17.932085037231445" cx="0" cy="0" style="stroke: rgb(255, 255, 255); stroke-opacity: 1; stroke-width: 0; fill: rgb(96, 55, 136); fill-opacity: 1;" transform="matrix(-0.08998916298151015,-0.9959427714347839,0.9959427714347839,-0.08998916298151015,173.1885223388672,109.86404418945312)"></ellipse>
      <ellipse id="E-ba-15a5e0" rx="7.5551371574401855" ry="8.924290657043457" cx="0" cy="0" style="stroke: rgb(255, 255, 255); stroke-opacity: 1; stroke-width: 0; fill: rgb(96, 55, 136); fill-opacity: 1;" transform="matrix(-0.776626467704773,-0.629961371421814,0.629961371421814,-0.776626467704773,157.39723205566406,66.6606216430664)"></ellipse>
      <ellipse id="E-2f-c15ad0" rx="5.874179363250732" ry="6.9387054443359375" cx="0" cy="0" style="stroke: rgb(255, 255, 255); stroke-opacity: 1; stroke-width: 0; fill: rgb(96, 55, 136); fill-opacity: 1;" transform="matrix(-0.5545979738235474,-0.8321187496185303,0.8321187496185303,-0.5545979738235474,149.529541015625,57.92442321777344)"></ellipse>
      <circle id="C-04-73be05" r="7.922240734100342" cx="0" cy="0" style="stroke: rgb(255, 255, 255); stroke-opacity: 1; stroke-width: 0; fill: rgb(96, 55, 136); fill-opacity: 1;" transform="matrix(1,0,0,1,144.99981689453125,87.09646606445312)"></circle>
      <circle id="C-d9-6a8eb8" r="13.587227821350098" cx="0" cy="0" style="stroke: rgb(255, 255, 255); stroke-opacity: 1; stroke-width: 0; fill: rgb(96, 55, 136); fill-opacity: 1;" transform="matrix(1,0,0,1,178.82684326171875,87.09644317626953)"></circle>
      <ellipse id="E-32-8000aa" rx="10.9833402633667" ry="20.19532012939453" cx="0" cy="0" style="stroke: rgb(255, 255, 255); stroke-opacity: 1; stroke-width: 0; fill: rgb(96, 55, 136); fill-opacity: 1;" transform="matrix(-0.9998932480812073,0.014611891470849514,-0.014611891470849514,-0.9998932480812073,213.57998657226562,93.13097381591797)"></ellipse>
    </g>
    <g id="G-e6-4a328d" transform="matrix(1,0,0,1,74.77942657470703,117.5704460144043)">
      <circle id="C-f2-c01b24" r="4.763956069946289" cx="0" cy="0" style="stroke: rgb(229, 229, 229); stroke-width: 0; fill: rgb(255, 255, 255);" transform="matrix(1,0,0,1,154.68385314941406,124.81275939941406)"></circle>
      <circle id="C-c9-af4eeb" r="4.763956069946289" cx="0" cy="0" style="stroke: rgb(229, 229, 229); stroke-width: 0; fill: rgb(255, 255, 255);" transform="matrix(1,0,0,1,173.4855499267578,107.3001937866211)"></circle>
      <circle id="C-cd-687e65" r="3.757844924926758" cx="0" cy="0" style="stroke: rgb(229, 229, 229); stroke-width: 0; fill: rgb(255, 255, 255);" transform="matrix(1,0,0,1,139.6127166748047,115.69075012207031)"></circle>
      <circle id="C-0b-3de350" r="9.295524597167969" cx="0" cy="0" style="stroke: rgb(229, 229, 229); stroke-width: 0; fill: rgb(255, 255, 255);" transform="matrix(1,0,0,1,171.31207275390625,122.22867584228516)"></circle>
      <circle id="C-f0-9477e4" r="7.087841033935547" cx="0" cy="0" style="stroke: rgb(229, 229, 229); stroke-width: 0; fill: rgb(255, 255, 255);" transform="matrix(1,0,0,1,187.89215087890625,110.37091827392578)"></circle>
      <circle id="C-c4-086d1c" r="5.687570095062256" cx="0" cy="0" style="stroke: rgb(229, 229, 229); stroke-width: 0; fill: rgb(255, 255, 255);" transform="matrix(1,0,0,1,190.03431701660156,125.3553695678711)"></circle>
      <circle id="C-b8-c5b0a1" r="5.19017219543457" cx="0" cy="0" style="stroke: rgb(229, 229, 229); stroke-width: 0; fill: rgb(255, 255, 255);" transform="matrix(1,0,0,1,213.79598999023438,109.34820556640625)"></circle>
      <circle id="C-ec-8cf911" r="4.763956069946289" cx="0" cy="0" style="stroke: rgb(229, 229, 229); stroke-width: 0; fill: rgb(255, 255, 255);" transform="matrix(1,0,0,1,201.58607482910156,112.06414794921875)"></circle>
      <circle id="C-05-6087d3" r="4.763956069946289" cx="0" cy="0" style="stroke: rgb(229, 229, 229); stroke-width: 0; fill: rgb(255, 255, 255);" transform="matrix(1,0,0,1,216.8780517578125,120.72908020019531)"></circle>
      <circle id="C-a2-5183d2" r="3.3695425987243652" cx="0" cy="0" style="stroke: rgb(229, 229, 229); stroke-width: 0; fill: rgb(255, 255, 255);" transform="matrix(1,0,0,1,143.93931579589844,125.49305725097656)"></circle>
      <circle id="C-84-dbbd81" r="2.8277907371520996" cx="0" cy="0" style="stroke: rgb(229, 229, 229); stroke-width: 0; fill: rgb(255, 255, 255);" transform="matrix(1,0,0,1,134.77137756347656,123.11466979980469)"></circle>
      <circle id="C-74-67eeed" r="2.6581172943115234" cx="0" cy="0" style="stroke: rgb(229, 229, 229); stroke-width: 0; fill: rgb(255, 255, 255);" transform="matrix(1,0,0,1,148.912109375,117.10006713867188)"></circle>
      <circle id="C-3b-26b39b" r="3.3695425987243652" cx="0" cy="0" style="stroke: rgb(229, 229, 229); stroke-width: 0; fill: rgb(255, 255, 255);" transform="matrix(1,0,0,1,128.81881713867188,117.4668197631836)"></circle>
      <circle id="C-75-2a5109" r="5.435023307800293" cx="0" cy="0" style="stroke: rgb(229, 229, 229); stroke-width: 0; fill: rgb(255, 255, 255);" transform="matrix(1,0,0,1,204.1336669921875,124.8127670288086)"></circle>
      <circle id="C-f7-2bcfbd" r="3.3695425987243652" cx="0" cy="0" style="stroke: rgb(229, 229, 229); stroke-width: 0; fill: rgb(255, 255, 255);" transform="matrix(1,0,0,1,146.2539520263672,108.32315063476562)"></circle>
      <circle id="C-53-101b86" r="2.5182197093963623" cx="0" cy="0" style="stroke: rgb(229, 229, 229); stroke-width: 0; fill: rgb(255, 255, 255);" transform="matrix(1,0,0,1,126.58026885986328,109.7457046508789)"></circle>
      <circle id="C-34-750a9a" r="3.3695425987243652" cx="0" cy="0" style="stroke: rgb(229, 229, 229); stroke-width: 0; fill: rgb(255, 255, 255);" transform="matrix(1,0,0,1,223.63681030273438,108.7155532836914)"></circle>
      <circle id="C-34-feefde" r="2.732863426208496" cx="0" cy="0" style="stroke: rgb(229, 229, 229); stroke-width: 0; fill: rgb(255, 255, 255);" transform="matrix(1,0,0,1,227.64129638671875,116.78759002685547)"></circle>
      <circle id="C-3b-046284" r="2.1088035106658936" cx="0" cy="0" style="stroke: rgb(229, 229, 229); stroke-width: 0; fill: rgb(255, 255, 255);" transform="matrix(1,0,0,1,230.7501220703125,103.28309631347656)"></circle>
      <circle id="C-81-83cc77" r="1.9826570749282837" cx="0" cy="0" style="stroke: rgb(229, 229, 229); stroke-width: 0; fill: rgb(255, 255, 255);" transform="matrix(1,0,0,1,122.02558135986328,114.63545989990234)"></circle>
      <circle id="C-db-76530c" r="2.170783758163452" cx="0" cy="0" style="stroke: rgb(229, 229, 229); stroke-width: 0; fill: rgb(255, 255, 255);" transform="matrix(1,0,0,1,122.9684829711914,104.1723403930664)"></circle>
      <circle id="C-a5-aab1ef" r="3.418247938156128" cx="0" cy="0" style="stroke: rgb(229, 229, 229); stroke-width: 0; fill: rgb(255, 255, 255);" transform="matrix(1,0,0,1,134.77362060546875,108.19510650634766)"></circle>
      <circle id="C-c7-8dc6e5" r="5.909395217895508" cx="0" cy="0" style="stroke: rgb(229, 229, 229); stroke-width: 0; fill: rgb(255, 255, 255);" transform="matrix(1,0,0,1,157.0667724609375,111.19065856933594)"></circle>
      <circle id="C-a3-72a768" r="2.1088035106658936" cx="0" cy="0" style="stroke: rgb(229, 229, 229); stroke-width: 0; fill: rgb(255, 255, 255);" transform="matrix(1,0,0,1,232.22689819335938,110.82432556152344)"></circle>
    </g>
  </svg>
  <defs id="SvgjsDefs582034"></defs>
</svg>