<svg width="100%" height="100%" version="1.1" 
  xmlns="http://www.w3.org/2000/svg" 
  xmlns:xlink="http://www.w3.org/1999/xlink" 
  xmlns:svgjs="http://svgjs.com/svgjs" 
style="stroke-linecap: round; stroke-linejoin: round; stroke-miterlimit: 20; background: rgba(163, 0, 0, 1);"
viewBox="15.995193481445312 14.278099060058594 166.2067108154297 173.6506118774414">
  <svg id="S-cd-0fb2c6" style="overflow: visible; pointer-events: all;">
    <polygon id="P-e4-3203d4" points="-3549.7576291858863,1169.0757270933636 -3531.841311503033,1188.2028341356456 -3535.27830409471,1214.0363272435375 -3532.5019177801373,1241.790474648304 -3550.52595970511,1263.4554561545692 -3563.1374039738325,1286.554763832709 -3588.577522380817,1291.4383544821562 -3614.4776017253007,1302.0394744284781 -3640.4310913872596,1291.441768985691 -3665.904600580469,1286.5547569022785 -3678.4515718739467,1264.1126463852092 -3696.7456134799245,1241.79065305564 -3694.8238910708087,1214.9069204037744 -3698.0432819429434,1189.0632268144088 -3680.352868624811,1170.160463138127 -3665.908549056679,1146.7493986805953 -3638.465873596487,1139.6096217438376 -3614.9987840737954,1128.5733604320799 -3591.9603889087675,1138.9476357493932 -3564.6326871031147,1145.4195673167064" style="stroke: rgb(244, 244, 219); stroke-opacity: 1; stroke-width: 0; fill: rgb(118, 105, 237); fill-opacity: 0;" class="" transform="matrix(1,0,0,1,3714.043212890625,-1114.1107177734375)"></polygon>
  </svg>
  <svg id="S-31-c5d8ca" style="overflow: visible; pointer-events: all;" data-disabled="false" data-hidden="false">
    <polygon id="P-b5-790f31" points="-3666.9315398923577,1154.8872787579924 -3691.7037931815476,1173.0053180340094 -3716.583251953125,1155.0675542085273 -3707.19797355313,1125.860591959019 -3676.519933506856,1125.7601318359375" style="stroke: rgb(244, 244, 219); stroke-opacity: 1; stroke-width: 0; fill: rgb(120, 105, 237); fill-opacity: 1;" class="" transform="matrix(1,0,0,1,3791.0216217041016,-1045.3244018554688)"></polygon>
    <polygon id="P-d8-56e3a8" points="-3036.816280034482,-27.975061178891586 -3048.1301727280133,7.627775610530961 -3061.011211287128,12.346317291259766 -3062.651611328125,-16.577250887974973 -3044.7305348903205,-38.907958984375" style="stroke: rgb(244, 244, 219); stroke-opacity: 1; stroke-width: 0; fill: rgb(61, 55, 118); fill-opacity: 1;" class="" transform="matrix(1,0,0,1,3203.9512481689453,131.75126457214355)"></polygon>
    <polygon id="P-30-f27800" points="-2966.77259778562,-15.122084049281543 -2974.7875358367396,-4.236621845195973 -3012.124503922042,-4.154573440551758 -3020.5478515625,-14.985685861718634 -2993.4939768161157,-25.38568115234375" style="stroke: rgb(244, 244, 219); stroke-opacity: 1; stroke-width: 0; fill: rgb(51, 47, 100); fill-opacity: 1;" class="" transform="matrix(1,0,0,1,3092.878204345703,171.11683750152588)"></polygon>
    <polygon id="P-52-562759" points="-2456.2792978494995,-27.50919679781193 -2457.6326409830035,1.079132080078125 -2470.4640373840266,-3.109775469266154 -2482.259765625,-38.559492021147754 -2474.623293148117,-49.96630859375" style="stroke: rgb(244, 244, 219); stroke-opacity: 1; stroke-width: 0; fill: rgb(75, 67, 144); fill-opacity: 1;" class="" transform="matrix(1,0,0,1,2513.56795501709,142.88816833496094)"></polygon>
    <polygon id="P-ae-d3f854" points="-3080.3057551760694,472.1471505020129 -3079.772114845831,485.85235993085394 -3107.8184343098105,478.53043669990706 -3123.53515625,454.5928931505614 -3110.6979226671515,450.43017578125" style="stroke: rgb(244, 244, 219); stroke-opacity: 1; stroke-width: 0; fill: rgb(75, 69, 147); fill-opacity: 1;" class="" transform="matrix(1,0,0,1,3232.731185913086,-412.9155731201172)"></polygon>
    <polygon id="P-98-709946" points="-2669.9327428726097,454.17130889607427 -2685.76226315947,478.5147059577084 -2713.379150390625,485.8660588893132 -2713.2859484258424,472.3681481957852 -2683.1157978850715,450.351806640625" style="stroke: rgb(244, 244, 219); stroke-opacity: 1; stroke-width: 0; fill: rgb(104, 92, 197); fill-opacity: 1;" class="" transform="matrix(1,0,0,1,2758.998764038086,-412.2760467529297)"></polygon>
    <polygon id="P-91-f240b3" points="-3389.052035366915,-130.43957776815625 -3394.902099609375,-159.92496948905793 -3383.8505718562674,-163.56585693359375 -3358.9710995320006,-145.62810059017002 -3358.9202344874357,-133.9861310468848" style="stroke: rgb(244, 244, 219); stroke-opacity: 1; stroke-width: 0; fill: rgb(104, 92, 197); fill-opacity: 1;" class="" transform="matrix(1,0,0,1,3458.2865447998047,273.3080749511719)"></polygon>
    <polygon id="P-be-a02097" points="-3331.092783209656,-250.17983047142656 -3343.81396484375,-277.69574611570505 -3317.477923204344,-292.29107666015625 -3310.655992978908,-283.0277821353173 -3320.041274189478,-253.82082632190762" style="stroke: rgb(244, 244, 219); stroke-opacity: 1; stroke-width: 0; fill: rgb(90, 81, 174); fill-opacity: 1;" class="" transform="matrix(1,0,0,1,3394.479537963867,363.5630798339844)"></polygon>
    <polygon id="P-89-20e88c" points="-2735.7161563692107,-328.401456839106 -2742.5380859375,-337.66474969086727 -2720.309935519115,-358.34161376953125 -2698.2966607570374,-338.0320698867565 -2705.038110091068,-328.5019169219058" style="stroke: rgb(244, 244, 219); stroke-opacity: 1; stroke-width: 0; fill: rgb(67, 62, 133); fill-opacity: 1;" class="" transform="matrix(1,0,0,1,2819.534469604492,408.9369354248047)"></polygon>
    <polygon id="P-04-b4b409" points="-3251.444281461742,228.8417739921136 -3251.4951171875,217.19976431745562 -3226.7228586398414,199.08172607421875 -3215.641965603993,202.68210772826995 -3221.5331893038215,232.47994444094502" style="stroke: rgb(244, 244, 219); stroke-opacity: 1; stroke-width: 0; fill: rgb(130, 113, 255); fill-opacity: 1;" class="" transform="matrix(1,0,0,1,3350.8121337890625,-89.51979064941406)"></polygon>
    <polygon id="P-70-e5f399" points="-2960.781002567909,165.39905362138654 -2970.369384765625,136.2719144908097 -2963.6279495852827,126.74176025390625 -2937.097696296422,141.58260048584822 -2949.700106561775,168.99943451757184" style="stroke: rgb(244, 244, 219); stroke-opacity: 1; stroke-width: 0; fill: rgb(104, 92, 197); fill-opacity: 1;" class="" transform="matrix(1,0,0,1,3084.8704681396484,-55.83697509765625)"></polygon>
    <polygon id="P-f4-1b6a80" points="-3249.478807173457,-311.1560361818935 -3274.9189393061447,-306.17315511517126 -3282.2958984375,-316.49463278958837 -3274.280961649601,-327.3800964355469 -3260.445892717528,-325.8827964690509" style="stroke: rgb(244, 244, 219); stroke-opacity: 1; stroke-width: 0; fill: rgb(61, 55, 118); fill-opacity: 1;" class="" transform="matrix(1,0,0,1,3400.3861541748047,483.3750457763672)"></polygon>
    <polygon id="P-04-85f4f9" points="-3182.699482537905,-254.13465178144267 -3208.572622923617,-243.40771991614434 -3234.5546875,-254.01004902700922 -3227.412646149537,-264.37406730884805 -3190.0756904918535,-264.45611572265625" style="stroke: rgb(244, 244, 219); stroke-opacity: 1; stroke-width: 0; fill: rgb(75, 67, 144); fill-opacity: 1;" class="" transform="matrix(1,0,0,1,3308.1660766601562,431.3362731933594)"></polygon>
    <polygon id="P-bd-de66d5" points="-2572.9306735942764,-317.03967375591674 -2580.071994950175,-306.6756733212344 -2605.543701171875,-311.5576471565313 -2594.930320676302,-326.5419715599097 -2581.354039260631,-327.87078857421875" style="stroke: rgb(244, 244, 219); stroke-opacity: 1; stroke-width: 0; fill: rgb(61, 55, 118); fill-opacity: 1;" class="" transform="matrix(1,0,0,1,2653.6798706054688,484.0018768310547)"></polygon>
    <polygon id="P-42-5df9f6" points="-3238.100113439686,167.7454482088905 -3251.9351842302135,166.24814822615886 -3278.656546616319,155.98455065369987 -3278.660888671875,149.5632781982422 -3248.7611736631256,153.21357453137304" style="stroke: rgb(244, 244, 219); stroke-opacity: 1; stroke-width: 0; fill: rgb(45, 40, 86); fill-opacity: 1;" class="" transform="matrix(1,0,0,1,3378.0408630371094,-10.253395080566406)"></polygon>
    <polygon id="P-b0-6a2250" points="-2852.362251796126,147.35937898731916 -2879.416133793227,157.75937537213127 -2892.992431640625,159.08819248295842 -2882.5097451331026,144.49675089007874 -2852.3665498022533,140.9380340576172" style="stroke: rgb(244, 244, 219); stroke-opacity: 1; stroke-width: 0; fill: rgb(45, 40, 86); fill-opacity: 1;" class="" transform="matrix(1,0,0,1,2951.7469329833984,-1.6282577514648438)"></polygon>
    <polygon id="P-1d-537c78" points="-3290.10400390625,-356.8362417099838 -3272.4136225493367,-375.7376403808594 -3260.3865146657336,-371.697185181475 -3260.4797166365142,-358.1992707186206 -3272.575624462104,-351.36751050235165" style="stroke: rgb(244, 244, 219); stroke-opacity: 1; stroke-width: 0; fill: rgb(111, 97, 219); fill-opacity: 1;" class="" transform="matrix(1,0,0,1,3306.1013946533203,431.7890319824219)"></polygon>
    <polygon id="P-e0-57efc8" points="-3157.489990234375,-304.8294132367064 -3142.8498753799845,-328.7072945762391 -3115.5942774647474,-335.3863525390625 -3115.293329727055,-322.8048717493098 -3145.4635046598364,-300.78852660531123" style="stroke: rgb(244, 244, 219); stroke-opacity: 1; stroke-width: 0; fill: rgb(120, 105, 237); fill-opacity: 1;" class="" transform="matrix(1,0,0,1,3191.1765747070312,360.8803482055664)"></polygon>
    <polygon id="P-f1-c365b7" points="-2563.4455458226744,-362.60290404439183 -2563.7470703125,-375.1839411255995 -2540.4298814157887,-386.4002990722656 -2540.2045111265124,-368.03933350176254 -2550.2624894417536,-358.7834014976275" style="stroke: rgb(244, 244, 219); stroke-opacity: 1; stroke-width: 0; fill: rgb(81, 76, 161); fill-opacity: 1;" class="" transform="matrix(1,0,0,1,2639.328598022461,400.6784133911133)"></polygon>
    <polygon id="P-fd-9dc10d" points="-3305.84521484375,154.4558487718664 -3293.749306926151,147.62408888940618 -3266.09519086348,140.22100830078125 -3262.369707623508,145.30628972073717 -3288.705745607337,159.9016188929627" style="stroke: rgb(244, 244, 219); stroke-opacity: 1; stroke-width: 0; fill: rgb(81, 76, 161); fill-opacity: 1;" class="" transform="matrix(1,0,0,1,3339.368995666504,-74.03427124023438)"></polygon>
    <polygon id="P-f5-a6ac2f" points="-2809.933837890625,18.73480178360291 -2794.143863646242,-5.560571986555479 -2784.0858838025815,-14.816505432128906 -2783.9825236463844,3.1395147078318963 -2806.2106772061275,23.81638317233046" style="stroke: rgb(244, 244, 219); stroke-opacity: 1; stroke-width: 0; fill: rgb(75, 67, 144); fill-opacity: 1;" class="" transform="matrix(1,0,0,1,2883.212142944336,47.455589294433594)"></polygon>
    <polygon id="P-07-ae74a8" points="-3184.370361328125,-379.0587158203125 -3161.1857880382026,-368.50519508710073 -3161.233823027973,-355.8221996301677 -3174.0710378542876,-351.6594823862703 -3184.1449750035404,-360.6977509785387" style="stroke: rgb(244, 244, 219); stroke-opacity: 1; stroke-width: 0; fill: rgb(67, 62, 133); fill-opacity: 1;" class="" transform="matrix(1,0,0,1,3283.268569946289,393.3368148803711)"></polygon>
    <polygon id="P-85-2e4498" points="-3162.849321396605,-332.188232421875 -3135.5754580225353,-325.8145997245445 -3120.6512189034306,-302.05026387300165 -3132.5057846909717,-297.7887166998098 -3162.89794921875,-319.5056912919699" style="stroke: rgb(244, 244, 219); stroke-opacity: 1; stroke-width: 0; fill: rgb(104, 92, 197); fill-opacity: 1;" class="" transform="matrix(1,0,0,1,3284.935272216797,357.02056884765625)"></polygon>
    <polygon id="P-67-75db28" points="-2555.758544921875,-374.3964597264238 -2543.904557880109,-378.6584167480469 -2525.9868346221942,-359.5371564222773 -2543.3651015784053,-353.6077174230897 -2555.224888708716,-360.69124626701455" style="stroke: rgb(244, 244, 219); stroke-opacity: 1; stroke-width: 0; fill: rgb(120, 105, 237); fill-opacity: 1;" class="" transform="matrix(1,0,0,1,2708.188278198242,433.6283416748047)"></polygon>
    <polygon id="P-53-e066b4" points="-3139.527099609375,-2.8793716430664062 -3129.453162528259,6.158898306183865 -3113.736460064205,30.096447055740143 -3117.410463818338,35.38619912603404 -3139.423739463639,15.076649657823328" style="stroke: rgb(244, 244, 219); stroke-opacity: 1; stroke-width: 0; fill: rgb(61, 55, 118); fill-opacity: 1;" class="" transform="matrix(1,0,0,1,3238.6508026123047,35.51846694946289)"></polygon>
    <polygon id="P-c2-da59b7" points="-2912.274725696893,134.18263244628906 -2884.2284046271448,141.50455423804786 -2872.3685976968613,148.58808060784364 -2889.4184761202796,154.31322382888015 -2915.94873046875,139.4723855531654" style="stroke: rgb(244, 244, 219); stroke-opacity: 1; stroke-width: 0; fill: rgb(67, 62, 133); fill-opacity: 1;" class="" transform="matrix(1,0,0,1,3037.189926147461,-68.5677490234375)"></polygon>
    <polygon id="P-04-936f18" points="-3218.0588759980474,-366.38358930344066 -3230.60205078125,-388.8267506749603 -3223.0938826499137,-399.0494384765625 -3210.26246583677,-394.86053335017124 -3207.445496826533,-381.3679118616388" style="stroke: rgb(244, 244, 219); stroke-opacity: 1; stroke-width: 0; fill: rgb(120, 105, 237); fill-opacity: 1;" class="" transform="matrix(1,0,0,1,3266.195487976074,538.8282470703125)"></polygon>
    <polygon id="P-56-eb7580" points="-2973.3190187442915,-430.5045672802106 -2991.6162109375,-451.7106866437106 -2989.6934643266127,-479.7067565917969 -2977.606360431853,-476.17624050795683 -2965.810623050866,-440.72653406881653" style="stroke: rgb(244, 244, 219); stroke-opacity: 1; stroke-width: 0; fill: rgb(104, 92, 197); fill-opacity: 1;" class="" transform="matrix(1,0,0,1,3008.9142456054688,580.5052032470703)"></polygon>
    <polygon id="P-64-5f8f76" points="-2500.029004318908,-348.2556928714194 -2512.115881204613,-351.78555166168735 -2515.34130859375,-377.6316223144531 -2497.8129049166296,-372.16288980092907 -2492.392527628234,-359.66250861109984" style="stroke: rgb(244, 244, 219); stroke-opacity: 1; stroke-width: 0; fill: rgb(67, 62, 133); fill-opacity: 1;" class="" transform="matrix(1,0,0,1,2531.3365020751953,452.58441162109375)"></polygon>
    <polygon id="P-e6-960f11" points="-3047.7294326877663,-2.6339096944785965 -3050.54638671875,-16.12652928404081 -3049.193058643471,-44.71484022474358 -3043.082469547139,-46.7441520690918 -3037.246743922439,-17.22534943657911" style="stroke: rgb(244, 244, 219); stroke-opacity: 1; stroke-width: 0; fill: rgb(90, 81, 174); fill-opacity: 1;" class="" transform="matrix(1,0,0,1,3106.4833602905273,160.0938777923584)"></polygon>
    <polygon id="P-37-756ff2" points="-2785.3559984104954,64.25975620572726 -2803.6999848994437,41.802648734159405 -2809.120361328125,29.302268981933594 -2791.980886912092,34.74804105960424 -2779.2453311530053,62.23044160041722" style="stroke: rgb(244, 244, 219); stroke-opacity: 1; stroke-width: 0; fill: rgb(61, 55, 118); fill-opacity: 1;" class="" transform="matrix(1,0,0,1,2842.6447219848633,51.11927032470703)"></polygon>
    <polygon id="P-23-9ebba2" points="-3203.969691597699,-381.536865234375 -3206.9525075760257,-355.7070058511311 -3219.0335003083305,-351.85159146262896 -3226.94775390625,-362.78448488806623 -3221.3479441427853,-375.6074289035729" style="stroke: rgb(244, 244, 219); stroke-opacity: 1; stroke-width: 0; fill: rgb(51, 47, 100); fill-opacity: 1;" class="" transform="matrix(1,0,0,1,3386.169174194336,455.6280059814453)"></polygon>
    <polygon id="P-6a-450c5c" points="-3054.8993027671518,-481.3692626953125 -3052.574396415303,-453.4572243473421 -3070.595769312243,-431.94659042972967 -3078.2939453125,-441.91171050572154 -3066.9800547785107,-477.5145550944823" style="stroke: rgb(244, 244, 219); stroke-opacity: 1; stroke-width: 0; fill: rgb(81, 76, 161); fill-opacity: 1;" class="" transform="matrix(1,0,0,1,3234.117172241211,581.2906494140625)"></polygon>
    <polygon id="P-56-4e5731" points="-2503.647974581068,-401.3528137207031 -2495.9495900248135,-391.3883830040262 -2508.563918605105,-368.5130191004219 -2519.531005859375,-383.2397874385838 -2516.529027148114,-396.63427119485243" style="stroke: rgb(244, 244, 219); stroke-opacity: 1; stroke-width: 0; fill: rgb(75, 67, 144); fill-opacity: 1;" class="" transform="matrix(1,0,0,1,2659.471176147461,540.7318420410156)"></polygon>
    <polygon id="P-a1-cebab2" points="-3167.609660978033,32.027610778808594 -3173.20947138243,44.850559187647896 -3191.130531000626,67.1812641151844 -3197.261962890625,65.16959432281087 -3184.659553525249,37.75275597040249" style="stroke: rgb(244, 244, 219); stroke-opacity: 1; stroke-width: 0; fill: rgb(45, 40, 86); fill-opacity: 1;" class="" transform="matrix(1,0,0,1,3332.4300994873047,47.99272918701172)"></polygon>
    <polygon id="P-00-2859c3" points="-2700.1746126315966,-55.63955226412763 -2698.534213175903,-26.715983911352886 -2701.5362073078527,-13.3215027056306 -2712.197265625,-27.85338240430514 -2706.3060265843005,-57.651222229003906" style="stroke: rgb(244, 244, 219); stroke-opacity: 1; stroke-width: 0; fill: rgb(51, 47, 100); fill-opacity: 1;" class="" transform="matrix(1,0,0,1,2841.4742736816406,170.81357192993164)"></polygon>
  </svg>
  <defs id="SvgjsDefs153826"></defs>
</svg>