<svg width="100%" height="100%" version="1.1" 
  xmlns="http://www.w3.org/2000/svg" 
  xmlns:xlink="http://www.w3.org/1999/xlink" 
  xmlns:svgjs="http://svgjs.com/svgjs" 
style="stroke-linecap: round; stroke-linejoin: round; stroke-miterlimit: 20; background: rgba(21, 8, 35, 1);"
viewBox="79.99989318847656 16.920635223388672 133.16114807128906 132.99090957641602">
  <svg id="S-b0-d291e2" style="overflow: visible; pointer-events: all;">
    <polygon id="P-45-f06ea6" points="80.15831946222984,17.025270605777482 88.28806955599372,17.18786560765276 93.00332461037675,22.878690673287473 161.13063039611802,23.52907068078858 206.33204091744517,69.54345621149211 207.4702059305721,136.857786987857 213.16103099620682,142.06082704786587 212.83584099245627,149.7027921360039 188.7717807149152,149.7027921360039 188.44659071116465,141.73563704411532 192.83665576179712,137.34557199348282 192.18627575429602,76.8602312958796 153.00088030235415,37.51224084206245 92.84072960850148,36.53667083081078 88.12547455411843,41.4145208870691 80.15831946222984,41.73971089081966" style="stroke: rgb(255, 255, 255); stroke-opacity: 1; stroke-width: 0; fill: rgb(255, 255, 255); fill-opacity: 1;"></polygon>
  </svg>
  <svg id="S-d4-2fd06e" style="overflow: visible; pointer-events: all;">
    <polygon id="P-c8-be10ec" points="79.99989318847656,16.68758201599121 88.33151245117188,16.68758201599121 92.93429565429688,22.339099884033203 92.93429565429688,36.5552864074707 88.33151245117188,41.27459716796875 79.99989318847656,41.27459716796875" style="stroke: rgb(255, 255, 255); stroke-opacity: 1; stroke-width: 0; fill: rgb(131, 131, 131); fill-opacity: 1;" transform="matrix(1,0,0,1,0,0.23305226862430573)"></polygon>
    <polygon id="P-6d-b4a43b" points="98.76060485839844,35.44829177856445 98.76060485839844,27.11667251586914 93.10908508300781,22.51388931274414 78.89289855957031,22.51388931274414 74.173583984375,27.11667251586914 74.173583984375,35.44829177856445" style="stroke: rgb(255, 255, 255); stroke-opacity: 1; stroke-width: 0; fill: rgb(212, 212, 212); fill-opacity: 1;" transform="matrix(1,0,0,1,114.16344451904297,114.46324634552002)"></polygon>
  </svg>
  <defs id="SvgjsDefs2424"></defs>
</svg>