<svg width="100%" height="100%" version="1.1" 
  xmlns="http://www.w3.org/2000/svg" 
  xmlns:xlink="http://www.w3.org/1999/xlink" 
  xmlns:svgjs="http://svgjs.com/svgjs" 
style="stroke-linecap: round; stroke-linejoin: round; stroke-miterlimit: 20; background: rgba(21, 8, 35, 1);"
viewBox="170.47723846435548 179.14276123046875 162.98299255371094 98.18252563476562">
  <svg id="S-bb-764f43" style="overflow: visible; pointer-events: all;">
    <circle id="C-c1-5813b8" r="49.091270446777344" cx="0" cy="0" style="stroke: rgb(255, 255, 255); stroke-opacity: 1; stroke-width: 0; fill: rgb(144, 83, 205); fill-opacity: 1;" transform="matrix(1.0000000000000002,0,0,1.0000000000000002,250.25296020507815,228.23402404785156)"></circle>
  </svg>
  <svg id="S-92-8a1cb6" style="overflow: visible; pointer-events: all;">
    <g id="G-bc-d96467">
      <ellipse id="E-89-02c4bf" rx="11.803325653076172" ry="13.942344665527344" cx="0" cy="0" style="stroke: rgb(255, 255, 255); stroke-opacity: 1; stroke-width: 0; fill: rgb(96, 55, 136); fill-opacity: 1;" transform="matrix(0.8849534988403321,-0.4656794369220734,0.4656794369220734,0.8849534988403321,270.4016418457031,214.0215606689453)"></ellipse>
      <ellipse id="E-06-ef8776" rx="15.180971145629883" ry="17.932085037231445" cx="0" cy="0" style="stroke: rgb(255, 255, 255); stroke-opacity: 1; stroke-width: 0; fill: rgb(96, 55, 136); fill-opacity: 1;" transform="matrix(-0.08998916298151018,-0.9959427714347842,0.9959427714347842,-0.08998916298151018,246.94844055175784,248.58949279785156)"></ellipse>
      <ellipse id="E-ba-15a5e0" rx="7.5551371574401855" ry="8.924290657043457" cx="0" cy="0" style="stroke: rgb(255, 255, 255); stroke-opacity: 1; stroke-width: 0; fill: rgb(96, 55, 136); fill-opacity: 1;" transform="matrix(-0.7766264677047731,-0.6299613714218141,0.6299613714218141,-0.7766264677047731,231.1571502685547,205.38607788085938)"></ellipse>
      <ellipse id="E-2f-c15ad0" rx="5.874179363250732" ry="6.9387054443359375" cx="0" cy="0" style="stroke: rgb(255, 255, 255); stroke-opacity: 1; stroke-width: 0; fill: rgb(96, 55, 136); fill-opacity: 1;" transform="matrix(-0.5545979738235475,-0.8321188092231752,0.8321188092231752,-0.5545979738235475,223.28945922851565,196.64987182617188)"></ellipse>
      <circle id="C-04-73be05" r="7.922240734100342" cx="0" cy="0" style="stroke: rgb(255, 255, 255); stroke-opacity: 1; stroke-width: 0; fill: rgb(96, 55, 136); fill-opacity: 1;" transform="matrix(1.0000000000000002,0,0,1.0000000000000002,218.7597351074219,225.82191467285156)"></circle>
      <circle id="C-d9-6a8eb8" r="13.587227821350098" cx="0" cy="0" style="stroke: rgb(255, 255, 255); stroke-opacity: 1; stroke-width: 0; fill: rgb(96, 55, 136); fill-opacity: 1;" transform="matrix(1.0000000000000002,0,0,1.0000000000000002,252.5867614746094,225.8218994140625)"></circle>
      <ellipse id="E-32-8000aa" rx="10.9833402633667" ry="20.19532012939453" cx="0" cy="0" style="stroke: rgb(255, 255, 255); stroke-opacity: 1; stroke-width: 0; fill: rgb(96, 55, 136); fill-opacity: 1;" transform="matrix(-0.9998932480812075,0.014611891470849516,-0.014611891470849516,-0.9998932480812075,287.3399047851563,231.85643005371094)"></ellipse>
    </g>
  </svg>
  <svg id="S-56-ed455a" style="overflow: visible; pointer-events: all;">
    <g id="G-e6-4a328d" transform="matrix(1.0000000000000002,0,0,1.0000000000000002,74.77942657470705,117.57044982910156)">
      <circle id="C-f2-c01b24" r="4.763956069946289" cx="0" cy="0" style="stroke: rgb(229, 229, 229); stroke-width: 0; fill: rgb(255, 255, 255);" transform="matrix(1,0,0,1,154.68385314941406,124.81275939941406)"></circle>
      <circle id="C-c9-af4eeb" r="4.763956069946289" cx="0" cy="0" style="stroke: rgb(229, 229, 229); stroke-width: 0; fill: rgb(255, 255, 255);" transform="matrix(1,0,0,1,173.4855499267578,107.3001937866211)"></circle>
      <circle id="C-cd-687e65" r="3.757844924926758" cx="0" cy="0" style="stroke: rgb(229, 229, 229); stroke-width: 0; fill: rgb(255, 255, 255);" transform="matrix(1,0,0,1,139.6127166748047,115.69075012207031)"></circle>
      <circle id="C-0b-3de350" r="9.295524597167969" cx="0" cy="0" style="stroke: rgb(229, 229, 229); stroke-width: 0; fill: rgb(255, 255, 255);" transform="matrix(1,0,0,1,171.31207275390625,122.22867584228516)"></circle>
      <circle id="C-f0-9477e4" r="7.087841033935547" cx="0" cy="0" style="stroke: rgb(229, 229, 229); stroke-width: 0; fill: rgb(255, 255, 255);" transform="matrix(1,0,0,1,187.89215087890625,110.37091827392578)"></circle>
      <circle id="C-c4-086d1c" r="5.687570095062256" cx="0" cy="0" style="stroke: rgb(229, 229, 229); stroke-width: 0; fill: rgb(255, 255, 255);" transform="matrix(1,0,0,1,190.03431701660156,125.3553695678711)"></circle>
      <circle id="C-b8-c5b0a1" r="5.19017219543457" cx="0" cy="0" style="stroke: rgb(229, 229, 229); stroke-width: 0; fill: rgb(255, 255, 255);" transform="matrix(1,0,0,1,213.79598999023438,109.34820556640625)"></circle>
      <circle id="C-ec-8cf911" r="4.763956069946289" cx="0" cy="0" style="stroke: rgb(229, 229, 229); stroke-width: 0; fill: rgb(255, 255, 255);" transform="matrix(1,0,0,1,201.58607482910156,112.06414794921875)"></circle>
      <circle id="C-05-6087d3" r="4.763956069946289" cx="0" cy="0" style="stroke: rgb(229, 229, 229); stroke-width: 0; fill: rgb(255, 255, 255);" transform="matrix(1,0,0,1,216.8780517578125,120.72908020019531)"></circle>
      <circle id="C-a2-5183d2" r="3.3695425987243652" cx="0" cy="0" style="stroke: rgb(229, 229, 229); stroke-width: 0; fill: rgb(255, 255, 255);" transform="matrix(1,0,0,1,143.93931579589844,125.49305725097656)"></circle>
      <circle id="C-84-dbbd81" r="2.8277907371520996" cx="0" cy="0" style="stroke: rgb(229, 229, 229); stroke-width: 0; fill: rgb(255, 255, 255);" transform="matrix(1,0,0,1,134.77137756347656,123.11466979980469)"></circle>
      <circle id="C-74-67eeed" r="2.6581172943115234" cx="0" cy="0" style="stroke: rgb(229, 229, 229); stroke-width: 0; fill: rgb(255, 255, 255);" transform="matrix(1,0,0,1,148.912109375,117.10006713867188)"></circle>
      <circle id="C-3b-26b39b" r="3.3695425987243652" cx="0" cy="0" style="stroke: rgb(229, 229, 229); stroke-width: 0; fill: rgb(255, 255, 255);" transform="matrix(1,0,0,1,128.81881713867188,117.4668197631836)"></circle>
      <circle id="C-75-2a5109" r="5.435023307800293" cx="0" cy="0" style="stroke: rgb(229, 229, 229); stroke-width: 0; fill: rgb(255, 255, 255);" transform="matrix(1,0,0,1,204.1336669921875,124.8127670288086)"></circle>
      <circle id="C-f7-2bcfbd" r="3.3695425987243652" cx="0" cy="0" style="stroke: rgb(229, 229, 229); stroke-width: 0; fill: rgb(255, 255, 255);" transform="matrix(1,0,0,1,146.2539520263672,108.32315063476562)"></circle>
      <circle id="C-53-101b86" r="2.5182197093963623" cx="0" cy="0" style="stroke: rgb(229, 229, 229); stroke-width: 0; fill: rgb(255, 255, 255);" transform="matrix(1,0,0,1,126.58026885986328,109.7457046508789)"></circle>
      <circle id="C-34-750a9a" r="3.3695425987243652" cx="0" cy="0" style="stroke: rgb(229, 229, 229); stroke-width: 0; fill: rgb(255, 255, 255);" transform="matrix(1,0,0,1,223.63681030273438,108.7155532836914)"></circle>
      <circle id="C-34-feefde" r="2.732863426208496" cx="0" cy="0" style="stroke: rgb(229, 229, 229); stroke-width: 0; fill: rgb(255, 255, 255);" transform="matrix(1,0,0,1,227.64129638671875,116.78759002685547)"></circle>
      <circle id="C-3b-046284" r="2.1088035106658936" cx="0" cy="0" style="stroke: rgb(229, 229, 229); stroke-width: 0; fill: rgb(255, 255, 255);" transform="matrix(1,0,0,1,230.7501220703125,103.28309631347656)"></circle>
      <circle id="C-81-83cc77" r="1.9826570749282837" cx="0" cy="0" style="stroke: rgb(229, 229, 229); stroke-width: 0; fill: rgb(255, 255, 255);" transform="matrix(1,0,0,1,122.02558135986328,114.63545989990234)"></circle>
      <circle id="C-db-76530c" r="2.170783758163452" cx="0" cy="0" style="stroke: rgb(229, 229, 229); stroke-width: 0; fill: rgb(255, 255, 255);" transform="matrix(1,0,0,1,122.9684829711914,104.1723403930664)"></circle>
      <circle id="C-a5-aab1ef" r="3.418247938156128" cx="0" cy="0" style="stroke: rgb(229, 229, 229); stroke-width: 0; fill: rgb(255, 255, 255);" transform="matrix(1,0,0,1,134.77362060546875,108.19510650634766)"></circle>
      <circle id="C-c7-8dc6e5" r="5.909395217895508" cx="0" cy="0" style="stroke: rgb(229, 229, 229); stroke-width: 0; fill: rgb(255, 255, 255);" transform="matrix(1,0,0,1,157.0667724609375,111.19065856933594)"></circle>
      <circle id="C-a3-72a768" r="2.1088035106658936" cx="0" cy="0" style="stroke: rgb(229, 229, 229); stroke-width: 0; fill: rgb(255, 255, 255);" transform="matrix(1,0,0,1,232.22689819335938,110.82432556152344)"></circle>
    </g>
  </svg>
  <defs id="SvgjsDefs13191"></defs>
</svg>