<svg width="100%" height="100%" version="1.1" 
  xmlns="http://www.w3.org/2000/svg" 
  xmlns:xlink="http://www.w3.org/1999/xlink" 
  xmlns:svgjs="http://svgjs.com/svgjs" 
style="stroke-linecap: round; stroke-linejoin: round; stroke-miterlimit: 20; background: rgba(21, 8, 35, 1);"
viewBox="-2.8940812587738023 11.843478202819824 73.97127561569214 44.56100940704346">
  <svg id="layer 1" style="overflow: visible;">
    <path id="P-67-8c6bec" d="M14.608604215904862 27.829490650240224L18.605107326558496 20.435959895530992L25.99863808126772 14.44120522955054L34.790944921927824 11.843478215959372L44.58237754580713 12.043303363158365L51.77608314498368 18.637533495736868L53.574509544777804 26.230889405978765L54.173985011375855 35.622671716014814L51.97590830051636 43.81550309285476L48.77870581199344 52.40798478076008L40.98552474621885 56.404487891413716L31.19409212511745 54.80588664715227L23.800561370408225 49.81025775883523L16.407030615698993 43.415852781789404L14.009128760418406 35.62267167434634L14.608604215904862 27.829490650240224 " style="stroke: rgb(255, 255, 255); stroke-opacity: 1; stroke-width: 0; fill: rgb(102, 58, 144); fill-opacity: 1;" points="14.608604215904862,27.829490650240224 18.605107326558496,20.435959895530992 25.99863808126772,14.44120522955054 34.59111976917304,12.442953674223723 44.58237754580713,12.043303363158365 51.77608314498368,18.637533495736868 53.574509544777804,26.230889405978765 54.173985011375855,35.622671716014814 51.97590830051636,43.81550309285476 48.77870581199344,52.40798478076008 40.98552474621885,56.404487891413716 31.19409212511745,54.80588664715227 23.800561370408225,49.81025775883523 16.407030615698993,43.415852781789404 14.80842937143754,33.624420160688 14.80842937143754,32.62529438302459" transform="matrix(1,0,0,1,0,-4.440892098500626e-16)"></path>
  </svg>
  <svg id="layer 1" style="overflow: visible;">
    <path id="P-26-a101c4" d="M14.383046936499648 21.81465094906177L16.87583529949263 17.20298355531127L21.487493771029662 13.463793776594649L26.971628167881576 11.843478211015544L33.07895965894713 11.968117865108004L37.565978712334484 16.081226621696267L38.68773347568127 20.817533674737312L39.061651730130265 26.675597661393365L37.6906181304841 31.785823692306074L35.69638744008974 37.14532904179986L30.835450132253392 39.63812222761092L24.728118642920553 38.64100495328653L20.11646017138353 35.52501347102269L15.504801699846489 31.536544373724944L14.009128688981459 26.675597635402937L14.383046936499648 21.81465094906177 " style="stroke: rgb(255, 255, 255); stroke-opacity: 1; stroke-width: 0; fill: rgb(127, 73, 181); fill-opacity: 1;" points="14.608604215904862,27.829490650240224 18.605107326558496,20.435959895530992 25.99863808126772,14.44120522955054 34.59111976917304,12.442953674223723 44.58237754580713,12.043303363158365 51.77608314498368,18.637533495736868 53.574509544777804,26.230889405978765 54.173985011375855,35.622671716014814 51.97590830051636,43.81550309285476 48.77870581199344,52.40798478076008 40.98552474621885,56.404487891413716 31.19409212511745,54.80588664715227 23.800561370408225,49.81025775883523 16.407030615698993,43.415852781789404 14.80842937143754,33.624420160688 14.80842937143754,32.62529438302459" transform="matrix(1,0,0,1,7.556161880493164,8.383181095123291)"></path>
    <path id="P-82-36e9ce" d="M14.170807097462378 16.154915880107495L15.248663622107884 14.160875954961416L17.242698192702093 12.544086826464588L19.613982546173037 11.843478206363576L22.254731032303766 11.897371175065864L24.19487277666568 13.67583921641236L24.67990821275613 15.723772112508334L24.84158669145297 18.25674174715334L24.248765602897926 20.466353556099L23.386480383181535 22.783751306944435L21.284660160122776 23.861610725942313L18.64391167474126 23.43046695834318L16.64987710414706 22.08314268459584L14.655842533552857 20.35856761419921L14.009128621762345 18.25674173591535L14.170807097462378 16.154915880107495 " style="stroke: rgb(255, 255, 255); stroke-opacity: 1; stroke-width: 0; fill: rgb(150, 86, 214); fill-opacity: 1;" points="14.608604215904862,27.829490650240224 18.605107326558496,20.435959895530992 25.99863808126772,14.44120522955054 34.59111976917304,12.442953674223723 44.58237754580713,12.043303363158365 51.77608314498368,18.637533495736868 53.574509544777804,26.230889405978765 54.173985011375855,35.622671716014814 51.97590830051636,43.81550309285476 48.77870581199344,52.40798478076008 40.98552474621885,56.404487891413716 31.19409212511745,54.80588664715227 23.800561370408225,49.81025775883523 16.407030615698993,43.415852781789404 14.80842937143754,33.624420160688 14.80842937143754,32.62529438302459" transform="matrix(1,0,0,1,15.149337288308459,16.338938236236572)"></path>
  </svg>
</svg>