<svg width="100%" height="100%" version="1.1" 
  xmlns="http://www.w3.org/2000/svg" 
  xmlns:xlink="http://www.w3.org/1999/xlink" 
  xmlns:svgjs="http://svgjs.com/svgjs" 
style="stroke-linecap: round; stroke-linejoin: round; stroke-miterlimit: 20; "
viewBox="5.151294708251953 8.479148864746094 49.79654312133789 49.343631744384766">
  <svg id="S-af-83f1e2" style="overflow: visible; pointer-events: all;">
    <polygon id="P-d2-496a9c" points="24.9031105915453,8.4791841506958 35.43128304170895,8.4791841506958 42.94743146444347,29.9398304267762 55.065635681152344,40.856014251708984 51.856407165527344,53.66273880004883 42.07647705078125,52.60593032836914 36.801658630371094,57.822811126708984 23.57889747619629,57.70094299316406 18.330720901489258,52.5089111328125 8.478321075439453,53.663814544677734 5.269092559814453,40.85708999633789 17.346201166743793,29.986735656694282" style="stroke: rgb(255, 255, 255); stroke-opacity: 1; stroke-width: 0; fill: rgb(212, 212, 212); fill-opacity: 1;" transform="matrix(1,0,0,1,-0.11779594421386719,-0.000034809112548828125)"></polygon>
  </svg>
  <svg id="S-05-f01a78" style="overflow: visible; pointer-events: all;">
    <polygon id="P-10-ebbcf6" points="26.02227783203125,78.27818298339844 49.768035888671875,78.37519836425781 44.49321365356445,83.59208679199219 31.27045440673828,83.47021484375" style="stroke: rgb(255, 255, 255); stroke-opacity: 1; stroke-width: 0; fill: rgb(90, 90, 90); fill-opacity: 1;" transform="matrix(1,0,0,1,-7.809351921081544,-25.769306182861328)"></polygon>
    <polygon id="P-26-07d7f2" points="30.53455711309898,29.27772416545233 25.359072320252523,14.040861010818489 25.739669565868997,8.473329544067383 33.255820084679144,29.93397410912334 32.38486862182617,52.59999084472656 24.42357635498047,34.447715759277344" style="stroke: rgb(255, 255, 255); stroke-opacity: 1; stroke-width: 0; fill: rgb(186, 186, 186); fill-opacity: 1;" transform="matrix(1,0,0,1,9.573814392089844,0.00590419769287065)"></polygon>
    <polygon id="P-19-9ef588" points="36.35559844970703,8.4791841506958 46.88377182365844,8.4791841506958 46.50317465078624,14.046712933001753 41.62005580419397,12.76764453495836 36.670105078738466,14.131833684793214" style="stroke: rgb(255, 255, 255); stroke-opacity: 1; stroke-width: 0; fill: rgb(214, 214, 214); fill-opacity: 1;" transform="matrix(1,0,0,1,-11.570306777954103,-0.0000023841860183893004)"></polygon>
    <polygon id="P-ac-a5c911" points="27.096082519241556,29.220040112238554 32.286100788688174,13.977173709375094 31.97159416860181,8.3245210647583 24.414684295654297,29.83207524593104 25.399215698242188,52.35422897338867 33.147789001464844,34.29894256591797" style="stroke: rgb(255, 255, 255); stroke-opacity: 1; stroke-width: 0; fill: rgb(255, 255, 255); fill-opacity: 1;" transform="matrix(1,0,0,1,-7.186290740966797,0.15464733541011766)"></polygon>
    <polygon id="P-49-746228" points="28.68981564236007,31.90503263921394 33.8368216405879,16.6698314222752 38.786774399100864,15.346030154697193 43.66989525229462,16.58471067487417 48.84538118215286,31.82156854468849 42.734405517578125,36.99163055419922 34.69851303100586,36.991600036621094" style="stroke: rgb(255, 255, 255); stroke-opacity: 1; stroke-width: 0; fill: rgb(0, 0, 0); fill-opacity: 1;" transform="matrix(1,0,0,1,-8.737014770507812,-2.5380110740661626)"></polygon>
    <polygon id="P-4f-7ba222" points="26.621930107142795,35.409517800606714 28.589902639390175,30.17926172090545 27.237655937909903,26.209033919076823 23.90692962491445,35.40915370586105" style="stroke: rgb(255, 255, 255); stroke-opacity: 1; stroke-width: 0; fill: rgb(255, 255, 255); fill-opacity: 1;" transform="matrix(1,0,0,1,-1.4960069656372088,-6.511714935302734)"></polygon>
    <polygon id="P-d8-601cc2" points="64.4673960460741,42.545945191674775 76.57905578613281,53.44709777832031 73.36982727050781,66.25382232666016 63.58990478515625,65.19701385498047" style="stroke: rgb(255, 255, 255); stroke-opacity: 1; stroke-width: 0; fill: rgb(255, 255, 255); fill-opacity: 1;" transform="matrix(1,0,0,1,-21.6312198638916,-12.591117858886719)"></polygon>
    <polygon id="P-9e-0fd3ba" points="75.75154241453934,42.545945191674775 63.6770133972168,53.44601821899414 66.88624572753906,66.25274658203125 76.73863983154297,65.09783935546875" style="stroke: rgb(255, 255, 255); stroke-opacity: 1; stroke-width: 0; fill: rgb(186, 186, 186); fill-opacity: 1;" transform="matrix(1,0,0,1,-58.525718688964844,-12.58896255493164)"></polygon>
    <polygon id="P-27-de1bc5" points="42.145172231799464,61.029972076416016 44.009239196777344,61.02345275878906 45.80473327636719,71.6067123413086 40.19340515136719,71.6067123413086" style="stroke: rgb(255, 255, 255); stroke-opacity: 1; stroke-width: 0; fill: rgb(255, 255, 255); fill-opacity: 1;" transform="matrix(1,0,0,1,-12.932746887207031,-19.04142570495606)"></polygon>
    <polygon id="P-ee-e38bbe" points="30.048138315824133,41.975504462857366 31.076492309570312,41.982025146484375 32.86101150512695,52.56528855860233 30.048137664794922,52.56528855860233" style="stroke: rgb(255, 255, 255); stroke-opacity: 1; stroke-width: 0; fill: rgb(86, 86, 86); fill-opacity: 1;" transform="matrix(1,0,0,1,0,0)"></polygon>
  </svg>
  <defs id="SvgjsDefs1649"></defs>
</svg>