<svg width="100%" height="100%" version="1.1" 
  xmlns="http://www.w3.org/2000/svg" 
  xmlns:xlink="http://www.w3.org/1999/xlink" 
  xmlns:svgjs="http://svgjs.com/svgjs" 
style="stroke-linecap: round; stroke-linejoin: round; stroke-miterlimit: 20; background: rgba(21, 8, 35, 1);"
viewBox="-142.10836875915527 43.487244893269406 871.2788179016113 524.8667577720549">
  <svg id="S-c6-c403a6" style="overflow: visible; pointer-events: all;">
    <polygon id="P-d9-5be6a6" points="43.53751546549883,222.03051654018145 176.44450702066138,197.3221645201333 350.0514141056326,185.92125722479233 447.95430490276965,188.95545986729476 552.5260695159999,216.893681676211 619.0122517938273,252.92092219825042 662.7169603087743,324.8296963927406 648.6504440544852,422.8689429153824 -68.88731948956257,425.9199927570694 -75.65490295333623,330.93179488402166 -33.27915958750083,260.51881201380877" style="stroke: rgb(255, 255, 255); stroke-opacity: 1; stroke-width: 0; fill: rgb(102, 102, 102); fill-opacity: 1;" transform="matrix(1,0,0,1,2.842170943040401e-14,3.552713678800501e-15)"></polygon>
  </svg>
  <svg id="S-49-f45ea4" style="overflow: visible; pointer-events: all;">
    <path id="E-b2-e35887" d="M170.6141628827003 39.541235924887154C170.6141628827003 62.895013203167736 131.09447466091942 81.85531921358304 82.4173068804218 81.85531921358304C33.74013909992429 81.85531921358304 -5.7795491218566895 62.895013203167736 -5.7795491218566895 39.541235924887154C-5.7795491218566895 16.187458646606473 33.74013909992429 -2.772847363808835 82.4173068804218 -2.772847363808835C131.09447466091942 -2.772847363808835 170.6141628827003 16.187458646606473 170.6141628827003 39.541235924887154 " style="stroke: rgb(255, 255, 255); stroke-opacity: 1; stroke-width: 0; fill: rgb(144, 144, 144); fill-opacity: 1;" cy="0" cx="0" ry="2.7728476524353027" rx="5.7795491218566895" transform="matrix(1,0,0,1,217.90156960487366,247.25570154190063)"></path>
    <path id="E-bc-cb3c63" d="M40.9821369757633 6.638191422978107C40.9821369757633 10.967243856119087 31.036088933264523 14.481885530115944 18.785348325175168 14.481885530115944C6.534607717085807 14.481885530115944 -3.411440325412979 10.967243856119087 -3.411440325412979 6.638191422978107C-3.411440325412979 2.309138989837131 6.534607717085807 -1.2055026841597245 18.785348325175168 -1.2055026841597245C31.036088933264523 -1.2055026841597245 40.9821369757633 2.309138989837131 40.9821369757633 6.638191422978107 " style="stroke: rgb(255, 255, 255); stroke-opacity: 1; stroke-width: 0; fill: rgb(144, 144, 144); fill-opacity: 1;" cy="0" cx="0" ry="1.2055028676986694" rx="3.411440372467041" transform="matrix(1,0,0,1,384.71521873733826,208.48919059297867)"></path>
    <path id="E-14-9f877b" d="M66.76101299311222 14.4188462757988C66.76101299311222 23.82200145096017 50.558631077051075 31.456171181194314 30.60184248737972 31.456171181194314C10.645053897708369 31.456171181194314 -5.557328018352767 23.82200145096017 -5.557328018352767 14.4188462757988C-5.557328018352767 5.015691100637443 10.645053897708369 -2.618478629596705 30.60184248737972 -2.618478629596705C50.558631077051075 -2.618478629596705 66.76101299311222 5.015691100637443 66.76101299311222 14.4188462757988 " style="stroke: rgb(255, 255, 255); stroke-opacity: 1; stroke-width: 0; fill: rgb(144, 144, 144); fill-opacity: 1;" cy="0" cx="0" ry="2.618478775024414" rx="5.557328224182129" transform="matrix(1,0,0,1,476.03214125373535,236.97270767429046)"></path>
    <path id="E-74-689832" d="M77.18317634606228 17.503178539266077C77.18317634606228 28.280361968061833 58.94583121177275 37.030068420490046 36.48253889046887 37.030068420490046C14.019246569165016 37.030068420490046 -4.218098565124557 28.280361968061833 -4.218098565124557 17.503178539266077C-4.218098565124557 6.72599511047035 14.019246569165016 -2.0237113419579003 36.48253889046887 -2.0237113419579003C58.94583121177275 -2.0237113419579003 77.18317634606228 6.72599511047035 77.18317634606228 17.503178539266077 " style="stroke: rgb(255, 255, 255); stroke-opacity: 1; stroke-width: 0; fill: rgb(144, 144, 144); fill-opacity: 1;" cy="0" cx="0" ry="2.0237114429473877" rx="4.218099117279053" transform="matrix(1,0,0,1,28.98822021484375,242.96381910106965)"></path>
    <path id="E-4c-395853" d="M40.982134103775024 6.638195276260376C40.982134103775024 10.967250397937304 31.03608685442923 14.481894254684448 18.78534722328186 14.481894254684448C6.534607592134474 14.481894254684448 -3.4114396572113037 10.967250397937304 -3.4114396572113037 6.638195276260376C-3.4114396572113037 2.3091401545834542 6.534607592134474 -1.2055037021636963 18.78534722328186 -1.2055037021636963C31.03608685442923 -1.2055037021636963 40.982134103775024 2.3091401545834542 40.982134103775024 6.638195276260376 " style="stroke: rgb(255, 255, 255); stroke-opacity: 1; stroke-width: 0; fill: rgb(144, 144, 144); fill-opacity: 1;" cy="0" cx="0" ry="1.2055037021636963" rx="3.4114396572113037" transform="matrix(1,0,0,1,149.17291915416718,220.15831339359283)"></path>
  </svg>
  <defs id="SvgjsDefs1120"></defs>
</svg>