<svg width="100%" height="100%" version="1.1" 
  xmlns="http://www.w3.org/2000/svg" 
  xmlns:xlink="http://www.w3.org/1999/xlink" 
  xmlns:svgjs="http://svgjs.com/svgjs" 
style="stroke-linecap: round; stroke-linejoin: round; stroke-miterlimit: 20; background: rgba(21, 8, 35, 1);"
viewBox="36.484228515625 -50.90592758914073 511.429248046875 308.08990846197287">
  <svg id="S-01-ef168e" style="overflow: visible; pointer-events: all;">
    <path id="P-9a-a6300a" d="M135.13120219393264 69.58352972239135C155.10694180096766 63.80391228011928 179.81180445314965 56.24606765075022 225.1592015203774 56.91292285769906C266.03041030618107 57.51395357072328 299.84914635690814 71.58416703419273 335.86029969746335 71.58415228681541C371.87150005652154 71.58415228681541 417.8857960791039 63.58168024162581 443.22702648119 63.58166349251567C468.5682415486755 63.58166349251567 506.8349074335262 72.30221157575127 505.2463159291303 96.92536695581703C503.91256707196595 117.5984633793294 494.5764152746619 128.93535872120108 424.55455054975954 142.2728025443319C354.5327720738125 155.61028373266515 263.8379094344976 147.60779155561295 199.81798544447196 139.60530596114108C135.79807369503473 131.6028172481411 79.7806128383885 116.93160208107565 79.11377790761776 102.26035887770735C78.44690382689441 87.5891295705407 109.37634586619804 77.03525378209841 135.13122010008854 69.58353509434706 " style="stroke: rgb(255, 255, 255); stroke-opacity: 1; stroke-width: 0; fill: rgb(102, 102, 102); fill-opacity: 1;" transform="matrix(1,0,0,1,0.000152587890625,0.0000247955322265625)"></path>
  </svg>
  <svg id="S-cc-d9d64c" style="overflow: visible; pointer-events: all;">
    <path id="E-b2-e35887" d="M69.430579662323 15.268889327509008C69.430579662323 25.226394453102404 52.58031438419342 33.31062605434811 31.825515270233154 33.31062605434811C11.070716156272884 33.31062605434811 -5.7795491218566895 25.226394453102404 -5.7795491218566895 15.268889327509008C-5.7795491218566895 5.311384201915603 11.070716156272884 -2.7728473993300904 31.825515270233154 -2.7728473993300904C52.58031438419342 -2.7728473993300904 69.430579662323 5.311384201915603 69.430579662323 15.268889327509008 " style="stroke: rgb(255, 255, 255); stroke-opacity: 1; stroke-width: 0; fill: rgb(144, 144, 144); fill-opacity: 1;" cy="0" cx="0" ry="2.7728476524353027" rx="5.7795491218566895" transform="matrix(1,0,0,1,253.55052208900452,84.68660032749176)"></path>
    <path id="E-bc-cb3c63" d="M40.9821369757633 6.638191422978107C40.9821369757633 10.967243856119087 31.036088933264523 14.481885530115944 18.785348325175168 14.481885530115944C6.534607717085807 14.481885530115944 -3.411440325412979 10.967243856119087 -3.411440325412979 6.638191422978107C-3.411440325412979 2.309138989837131 6.534607717085807 -1.2055026841597245 18.785348325175168 -1.2055026841597245C31.036088933264523 -1.2055026841597245 40.9821369757633 2.309138989837131 40.9821369757633 6.638191422978107 " style="stroke: rgb(255, 255, 255); stroke-opacity: 1; stroke-width: 0; fill: rgb(144, 144, 144); fill-opacity: 1;" cy="0" cx="0" ry="1.2055028676986694" rx="3.411440372467041" transform="matrix(1,0,0,1,419.421439409256,72.21918445825577)"></path>
    <path id="E-14-9f877b" d="M66.76101299311222 14.4188462757988C66.76101299311222 23.82200145096017 50.558631077051075 31.456171181194314 30.60184248737972 31.456171181194314C10.645053897708369 31.456171181194314 -5.557328018352767 23.82200145096017 -5.557328018352767 14.4188462757988C-5.557328018352767 5.015691100637443 10.645053897708369 -2.618478629596705 30.60184248737972 -2.618478629596705C50.558631077051075 -2.618478629596705 66.76101299311222 5.015691100637443 66.76101299311222 14.4188462757988 " style="stroke: rgb(255, 255, 255); stroke-opacity: 1; stroke-width: 0; fill: rgb(144, 144, 144); fill-opacity: 1;" cy="0" cx="0" ry="2.618478775024414" rx="5.557328224182129" transform="matrix(1,0,0,1,353.5688099861145,94.44101703166962)"></path>
    <path id="E-74-689832" d="M50.67265189820551 11.143716792151986C50.67265189820551 18.41101790894172 38.37479087645185 24.311144959151832 23.227276530242495 24.311144959151832C8.079762184033168 24.311144959151832 -4.218098837720538 18.41101790894172 -4.218098837720538 11.143716792151986C-4.218098837720538 3.8764156753622654 8.079762184033168 -2.023711374847867 23.227276530242495 -2.023711374847867C38.37479087645185 -2.023711374847867 50.67265189820551 3.8764156753622654 50.67265189820551 11.143716792151986 " style="stroke: rgb(255, 255, 255); stroke-opacity: 1; stroke-width: 0; fill: rgb(144, 144, 144); fill-opacity: 1;" cy="0" cx="0" ry="2.0237114429473877" rx="4.218099117279053" transform="matrix(1,0,0,1,156.99428033828735,86.65631639957428)"></path>
    <path id="E-4c-395853" d="M40.982134103775024 6.638195276260376C40.982134103775024 10.967250397937304 31.03608685442923 14.481894254684448 18.78534722328186 14.481894254684448C6.534607592134474 14.481894254684448 -3.4114396572113037 10.967250397937304 -3.4114396572113037 6.638195276260376C-3.4114396572113037 2.3091401545834542 6.534607592134474 -1.2055037021636963 18.78534722328186 -1.2055037021636963C31.03608685442923 -1.2055037021636963 40.982134103775024 2.3091401545834542 40.982134103775024 6.638195276260376 " style="stroke: rgb(255, 255, 255); stroke-opacity: 1; stroke-width: 0; fill: rgb(144, 144, 144); fill-opacity: 1;" cy="0" cx="0" ry="1.2055037021636963" rx="3.4114396572113037" transform="matrix(1,0,0,1,203.29059493541718,65.72925913333893)"></path>
  </svg>
  <defs id="SvgjsDefs3347"></defs>
</svg>