<svg width="100%" height="100%" version="1.1" 
  xmlns="http://www.w3.org/2000/svg" 
  xmlns:xlink="http://www.w3.org/1999/xlink" 
  xmlns:svgjs="http://svgjs.com/svgjs" 
style="stroke-linecap: round; stroke-linejoin: round; stroke-miterlimit: 20; background: rgba(21, 8, 35, 1);"
viewBox="72.55300979614258 40.30725205662739 78.6019500732422 47.35057233327843">
  <svg id="layer 2" style="overflow: visible;">
    <path id="P-9a-a6300a" d="M87.71416577422241 58.82537350943086C90.78425139935452 57.93709996641011 94.58115930821694 56.77552941375935 101.55063301041832 56.87801886799655C107.83215815259021 56.97039170863086 113.02978374503178 59.132852890376654 118.56436350979459 59.13285062384168C124.09895050086456 59.13285062384168 131.17092037775222 57.90294496529161 135.06563209862415 57.90294239110888C138.96034146271046 57.90294239110888 144.84157255432112 59.24320967010258 144.59742079634893 63.02756005112072C144.3924359860506 66.20482304278752 142.957556177302 67.94719860531626 132.1958459945581 69.99703989636117C121.43414906747759 72.0468869300908 107.49519113451424 70.81697817746036 97.65592349134727 69.5870704365114C87.81665772944507 68.35716221627362 79.20729433587024 66.10233265237329 79.10480800116781 63.84749877955352C79.00231564948132 61.592667042450934 83.75588359070446 59.9706343157459 87.71416852623224 58.82537433505058 " style="stroke: rgb(255, 255, 255); stroke-opacity: 1; stroke-width: 0; fill: rgb(102, 102, 102); fill-opacity: 1;" transform="matrix(1,0,0,1,3.552713678800501e-15,0)"></path>
  </svg>
  <svg id="S-cc-d9d64c" style="overflow: visible; pointer-events: all;">
    <path id="E-b2-e35887" d="M5.7795491218566895 0C5.7795491218566895 1.5303762120938302 3.189819853589535 2.7728476524353027 0 2.7728476524353027C-3.189819853589535 2.7728476524353027 -5.7795491218566895 1.5303762120938302 -5.7795491218566895 0C-5.7795491218566895 -1.5303762120938302 -3.189819853589535 -2.7728476524353027 0 -2.7728476524353027C3.189819853589535 -2.7728476524353027 5.7795491218566895 -1.5303762120938302 5.7795491218566895 0 " style="stroke: rgb(255, 255, 255); stroke-opacity: 1; stroke-width: 0; fill: rgb(144, 144, 144); fill-opacity: 1;" cy="0" cx="0" ry="2.7728476524353027" rx="5.7795491218566895" transform="matrix(1,0,0,1,110.80538940429686,63.493255615234375)"></path>
    <path id="E-bc-cb3c63" d="M3.411440372467041 0C3.411440372467041 0.6653351152259112 1.882825113170147 1.2055028676986694 0 1.2055028676986694C-1.882825113170147 1.2055028676986694 -3.411440372467041 0.6653351152259112 -3.411440372467041 0C-3.411440372467041 -0.6653351152259112 -1.882825113170147 -1.2055028676986694 0 -1.2055028676986694C1.882825113170147 -1.2055028676986694 3.411440372467041 -0.6653351152259112 3.411440372467041 0 " style="stroke: rgb(255, 255, 255); stroke-opacity: 1; stroke-width: 0; fill: rgb(144, 144, 144); fill-opacity: 1;" cy="0" cx="0" ry="1.2055028676986694" rx="3.411440372467041" transform="matrix(1,0,0,1,134.2940521240234,60.250675201416016)"></path>
    <path id="E-14-9f877b" d="M5.557328224182129 0C5.557328224182129 1.4451777131175996 3.06717280684948 2.618478775024414 0 2.618478775024414C-3.06717280684948 2.618478775024414 -5.557328224182129 1.4451777131175996 -5.557328224182129 0C-5.557328224182129 -1.4451777131175996 -3.06717280684948 -2.618478775024414 0 -2.618478775024414C3.06717280684948 -2.618478775024414 5.557328224182129 -1.4451777131175996 5.557328224182129 0 " style="stroke: rgb(255, 255, 255); stroke-opacity: 1; stroke-width: 0; fill: rgb(144, 144, 144); fill-opacity: 1;" cy="0" cx="0" ry="2.618478775024414" rx="5.557328224182129" transform="matrix(1,0,0,1,125.9892120361328,64.86177825927734)"></path>
    <path id="E-74-689832" d="M4.218099117279053 0C4.218099117279053 1.1169167010343075 2.3280321743130687 2.0237114429473877 0 2.0237114429473877C-2.3280321743130687 2.0237114429473877 -4.218099117279053 1.1169167010343075 -4.218099117279053 0C-4.218099117279053 -1.1169167010343075 -2.3280321743130687 -2.0237114429473877 0 -2.0237114429473877C2.3280321743130687 -2.0237114429473877 4.218099117279053 -1.1169167010343075 4.218099117279053 0 " style="stroke: rgb(255, 255, 255); stroke-opacity: 1; stroke-width: 0; fill: rgb(144, 144, 144); fill-opacity: 1;" cy="0" cx="0" ry="2.0237114429473877" rx="4.218099117279053" transform="matrix(1,0,0,1,94.64413452148438,63.1619873046875)"></path>
    <path id="E-4c-395853" d="M3.4114396572113037 0C3.4114396572113037 0.6653355757796765 1.8828247184097768 1.2055037021636963 0 1.2055037021636963C-1.8828247184097768 1.2055037021636963 -3.4114396572113037 0.6653355757796765 -3.4114396572113037 0C-3.4114396572113037 -0.6653355757796765 -1.8828247184097768 -1.2055037021636963 0 -1.2055037021636963C1.8828247184097768 -1.2055037021636963 3.4114396572113037 -0.6653355757796765 3.4114396572113037 0 " style="stroke: rgb(255, 255, 255); stroke-opacity: 1; stroke-width: 0; fill: rgb(144, 144, 144); fill-opacity: 1;" cy="0" cx="0" ry="1.2055037021636963" rx="3.4114396572113037" transform="matrix(1,0,0,1,101.07675933837889,59.25323486328125)"></path>
  </svg>
  <defs id="SvgjsDefs1255"></defs>
</svg>