<svg width="100%" height="100%" version="1.1" 
  xmlns="http://www.w3.org/2000/svg" 
  xmlns:xlink="http://www.w3.org/1999/xlink" 
  xmlns:svgjs="http://svgjs.com/svgjs" 
style="stroke-linecap: round; stroke-linejoin: round; stroke-miterlimit: 20; background: rgba(21, 8, 35, 1);"
viewBox="80.10184921264648 -68.31377536130239 496.29048797607425 298.9701734795628">
  <svg id="S-01-ef168e" style="overflow: visible; pointer-events: all;">
    <polygon id="P-c5-3352ff" points="117.95451354980469,75.29798126220703 207.44952392578125,28.8769474029541 458.1522216796875,11.339265823364258 538.5396728515625,91.95057678222656 485.5186059474945,151.00335878133774 150.48898082971573,137.195598423481" style="stroke: rgb(102, 102, 102); stroke-opacity: 1; stroke-width: 0; fill: rgb(143, 141, 255); fill-opacity: 1;"></polygon>
  </svg>
  <defs id="SvgjsDefs4900"></defs>
  <svg id="layer 2" style="overflow: visible;">
    <polygon id="P-b5-8a470b" points="338.9866027832031,82.82261657714844 485.5186059474945,151.00335878133774 538.5396728515625,91.95057678222656" style="stroke: rgb(102, 102, 102); stroke-opacity: 1; stroke-width: 0; fill: rgb(187, 186, 255); fill-opacity: 1;" transform="matrix(0.9999999999999999,0,0,0.9999999999999999,3.552713678800501e-15,1.4210854715202004e-14)"></polygon>
    <polygon id="P-99-216614" points="117.95451354980469,75.29798126220703 338.9866027832031,82.82261657714844 150.48898082971573,137.195598423481" style="stroke: rgb(102, 102, 102); stroke-opacity: 1; stroke-width: 0; fill: rgb(187, 186, 255); fill-opacity: 1;" transform="matrix(0.9999999999999999,0,0,0.9999999999999999,0,0)"></polygon>
    <polygon id="P-56-59dbe8" points="338.9866027832031,82.82261657714844 458.1522216796875,11.339265823364258 538.5396728515625,91.95057678222656" style="stroke: rgb(102, 102, 102); stroke-opacity: 1; stroke-width: 0; fill: rgb(222, 221, 255); fill-opacity: 1;" transform="matrix(0.9999999999999999,0,0,0.9999999999999999,0,0)"></polygon>
    <polygon id="P-3c-9afe78" points="338.9866027832031,82.82261657714844 207.44952392578125,28.8769474029541 458.1522216796875,11.339265823364258" style="stroke: rgb(102, 102, 102); stroke-opacity: 1; stroke-width: 0; fill: rgb(255, 255, 255); fill-opacity: 1;" transform="matrix(0.9999999999999999,0,0,0.9999999999999999,0,0)"></polygon>
    <polygon id="P-ac-483d9f" points="117.95451354980469,75.29798126220703 207.44952392578125,28.8769474029541 338.9866027832031,82.82261657714844" style="stroke: rgb(102, 102, 102); stroke-opacity: 1; stroke-width: 0; fill: rgb(222, 221, 255); fill-opacity: 1;" transform="matrix(0.9999999999999999,0,0,0.9999999999999999,0,0)"></polygon>
  </svg>
</svg>