<svg width="100%" height="100%" version="1.1" 
  xmlns="http://www.w3.org/2000/svg" 
  xmlns:xlink="http://www.w3.org/1999/xlink" 
  xmlns:svgjs="http://svgjs.com/svgjs" 
style="stroke-linecap: round; stroke-linejoin: round; stroke-miterlimit: 20; background: rgba(21, 8, 35, 1);"
viewBox="24.501667022705078 44.29231643676758 19.866287231445312 19.624488830566406">
  <svg id="S-e6-84aa98" style="overflow: visible; pointer-events: all;">
    <path id="C-eb-866556" d="M-31.562612528196347 -40.7813062640982C-31.562612528196347 -35.693370910847925 -35.693370910847925 -31.562612528196347 -40.7813062640982 -31.562612528196347C-45.86924161734834 -31.562612528196347 -50 -35.693370910847925 -50 -40.7813062640982C-50 -45.86924161734834 -45.86924161734834 -50 -40.7813062640982 -50C-35.693370910847925 -50 -31.562612528196347 -45.86924161734834 -31.562612528196347 -40.7813062640982 " style="stroke: rgb(255, 255, 255); stroke-opacity: 1; stroke-width: 0; fill: rgb(255, 255, 255); fill-opacity: 1;" cy="0" cx="0" r="50" transform="matrix(1,0,0,1,75.20891857147217,94.9174222946167)"></path>
  </svg>
  <svg id="S-58-9afc99" style="overflow: visible; pointer-events: all;">
    <path id="P-eb-692599" d="M-77.99116476494653 -35.22798642811715C-78.50146328125624 -34.49945471016107 -79.01176179756595 -33.77092299220503 -79.52206031387558 -33.04239127424894C-80.45258935417846 -33.04904782062845 -81.38311839448133 -33.05570436700792 -82.31364743478416 -33.06236091338741C-83.03406121309047 -32.70142332759911 -83.75447499139678 -32.34048574181075 -84.47488876970303 -31.9795481560225C-85.20015683458334 -32.343913639514135 -85.9254248994637 -32.708279123005674 -86.65069296434399 -33.07264460649726C-87.58553398121954 -33.07042000395624 -88.520374998095 -33.068195401415196 -89.4552160149705 -33.06597079887412C-89.97091112785566 -33.796926368398346 -90.4866062407409 -34.52788193792254 -91.00230135362604 -35.25883750744673C-91.72756941850632 -35.623202990938275 -92.4528374833867 -35.98756847442988 -93.17810554826707 -36.35193395792146C-93.1781000490752 -37.254829703867294 -93.17809454988341 -38.157725449813114 -93.1780890506916 -39.060621195758934C-93.59820041937387 -39.964817030584356 -94.01831178805605 -40.869012865409715 -94.43842315673828 -41.77320870023514C-94.01830078967248 -42.67480435730141 -93.59817842260668 -43.57640001436769 -93.17805605554088 -44.47799567143395C-93.17805055634902 -45.38089141737979 -93.17804505715738 -46.28378716332563 -93.17803955796553 -47.18668290927149C-92.45316359170917 -47.55479585337596 -91.72828762545271 -47.92290879748045 -91.0034116591964 -48.29102174158492C-90.48821893461665 -49.0294082823329 -89.97302621003699 -49.76779482308085 -89.45783348545734 -50.50618136382878C-88.52327427752421 -50.50402071128978 -87.58871506959123 -50.501860058750886 -86.65415586165817 -50.4996994062119C-85.92927989540173 -50.86781235031641 -85.20440392914536 -51.235925294420895 -84.47952796288902 -51.60403823852539C-83.758726241598 -51.22221554318123 -83.03792452030706 -50.84039284783706 -82.31712279901605 -50.45857015249289C-81.38632264502783 -50.443040173730544 -80.45552249103973 -50.42751019496822 -79.52472233705153 -50.41198021620588C-79.01391904845774 -49.66386480427984 -78.50311575986403 -48.91574939235384 -77.9923124712702 -48.16763398042782C-77.27151074997934 -47.78581128508364 -76.55070902868825 -47.40398858973949 -75.82990730739722 -47.02216589439529C-75.8299086509498 -46.12955200198586 -75.82990999450237 -45.23693810957643 -75.82991133805493 -44.34432421716698C-75.41065223566753 -43.448031056529786 -74.99139313328031 -42.55173789589254 -74.57213403089295 -41.655444735255294C-74.99139582038536 -40.76651011107366 -75.41065760987776 -39.877575486892 -75.82991939937014 -38.98864086271033C-75.82992074292265 -38.09602697030091 -75.82992208647526 -37.203413077891454 -75.82992343002779 -36.31079918548202L-77.99116476494653 -35.22798642811715 " style="stroke: rgb(255, 255, 255); stroke-opacity: 1; stroke-width: 0; fill: rgb(255, 255, 255); fill-opacity: 1;" points="-83.17242546637462,-40.38682204818865 -84.22105407714844,-38.889739990234375 -86.13322772380926,-38.90341873051026 -87.61362885252657,-38.16171707167106 -89.10400520873087,-38.91046282210107 -91.02503967285156,-38.90589141845703 -92.08475792113946,-40.407954322961075 -93.57513427734375,-41.15670007339108 -93.57512297688007,-43.01208809307956 -94.43842315673828,-44.870147705078125 -93.57510037595273,-46.722864132456536 -93.57508907548905,-48.57825215214502 -92.08551845518674,-49.33469867374011 -91.0268325805664,-50.85203170776367 -89.10637721458214,-50.847591716930296 -87.61680659427984,-51.60403823852539 -86.13560826921545,-50.819419130762704 -84.2228775024414,-50.787506103515625 -83.17321161908671,-49.25018091523733 -81.69201329402233,-48.46556180747464 -81.69201605493107,-46.631302282362945 -80.8304672241211,-44.78948211669922 -81.69202157674856,-42.96278323213954 -81.6920243376573,-41.128523707027846" transform="matrix(0.9999999999999999,0,0,0.9999999999999999,118.94009017944336,95.89635372161865)"></path>
  </svg>
  <svg id="S-94-6187d0" style="overflow: visible; pointer-events: all;">
    <path id="C-0e-df702f" d="M3.658346176147461 0C3.658346176147461 2.019096129808426 2.019096129808426 3.658346176147461 0 3.658346176147461C-2.019096129808426 3.658346176147461 -3.658346176147461 2.019096129808426 -3.658346176147461 0C-3.658346176147461 -2.019096129808426 -2.019096129808426 -3.658346176147461 0 -3.658346176147461C2.019096129808426 -3.658346176147461 3.658346176147461 -2.019096129808426 3.658346176147461 0 " transform="matrix(1,0,0,1,34.38222885131836,54.088632261107854)" style="stroke: rgb(255, 255, 255); stroke-opacity: 1; stroke-width: 0; fill: rgb(255, 255, 255); fill-opacity: 1;" cy="0" cx="0" r="3.658346176147461"></path>
    <path id="P-0f-8305bc" d="M-83.17242546637462 -40.38682204818865C-83.52196833663255 -39.887794695537224 -83.8715112068905 -39.3887673428858 -84.22105407714844 -38.889739990234375C-84.85844529270204 -38.89429957032634 -85.49583650825565 -38.898859150418296 -86.13322772380926 -38.90341873051026C-86.62669476671503 -38.65618484423053 -87.1201618096208 -38.40895095795079 -87.61362885252657 -38.16171707167106C-88.11042097126133 -38.411298988481064 -88.60721308999611 -38.660880905291066 -89.10400520873087 -38.91046282210107C-89.74435003010443 -38.908939020886386 -90.384694851478 -38.90741521967171 -91.02503967285156 -38.90589141845703C-91.37827908894752 -39.406579053291715 -91.7315185050435 -39.90726668812639 -92.08475792113946 -40.407954322961075C-92.58155003987422 -40.657536239771076 -93.07834215860899 -40.90711815658108 -93.57513427734375 -41.15670007339108C-93.57513051052253 -41.77516274662057 -93.57512674370129 -42.39362541985007 -93.57512297688007 -43.01208809307956C-93.86288970349948 -43.631441297079085 -94.15065643011887 -44.2507945010786 -94.43842315673828 -44.870147705078125C-94.15064889647643 -45.4877198475376 -93.86287463621458 -46.10529198999706 -93.57510037595273 -46.722864132456536C-93.5750966091315 -47.34132680568603 -93.57509284231027 -47.959789478915525 -93.57508907548905 -48.57825215214502C-93.07856553538828 -48.830400992676715 -92.58204199528751 -49.08254983320841 -92.08551845518674 -49.33469867374011C-91.73262316364664 -49.84047635174796 -91.37972787210651 -50.34625402975582 -91.0268325805664 -50.85203170776367C-90.38668079190498 -50.85055171081921 -89.74652900324357 -50.84907171387476 -89.10637721458214 -50.847591716930296C-88.60985367448137 -51.09974055746199 -88.1133301343806 -51.351889397993695 -87.61680659427984 -51.60403823852539C-87.12307381925838 -51.34249853593783 -86.62934104423691 -51.080958833350266 -86.13560826921545 -50.819419130762704C-85.49803134695743 -50.80878145501368 -84.86045442469943 -50.79814377926465 -84.2228775024414 -50.787506103515625C-83.87298887465651 -50.275064374089524 -83.5231002468716 -49.76262264466343 -83.17321161908671 -49.25018091523733C-82.67947884406526 -48.98864121264977 -82.18574606904379 -48.727101510062205 -81.69201329402233 -48.46556180747464C-81.69201421432524 -47.854141965770744 -81.69201513462816 -47.242722124066844 -81.69201605493107 -46.631302282362945C-81.40483311132775 -46.0173622271417 -81.11765016772442 -45.40342217192046 -80.8304672241211 -44.78948211669922C-81.11765200833025 -44.18058248851266 -81.4048367925394 -43.5716828603261 -81.69202157674856 -42.96278323213954C-81.69202249705147 -42.351363390435644 -81.69202341735439 -41.739943548731745 -81.6920243376573 -41.128523707027846L-83.17242546637462 -40.38682204818865 " transform="matrix(1,0,0,1,122.11612319946289,98.90184942419378)" style="stroke: rgb(255, 255, 255); stroke-opacity: 1; stroke-width: 0; fill: rgb(112, 112, 112); fill-opacity: 1;" points="-83.17242546637462,-40.38682204818865 -84.22105407714844,-38.889739990234375 -86.13322772380926,-38.90341873051026 -87.61362885252657,-38.16171707167106 -89.10400520873087,-38.91046282210107 -91.02503967285156,-38.90589141845703 -92.08475792113946,-40.407954322961075 -93.57513427734375,-41.15670007339108 -93.57512297688007,-43.01208809307956 -94.43842315673828,-44.870147705078125 -93.57510037595273,-46.722864132456536 -93.57508907548905,-48.57825215214502 -92.08551845518674,-49.33469867374011 -91.0268325805664,-50.85203170776367 -89.10637721458214,-50.847591716930296 -87.61680659427984,-51.60403823852539 -86.13560826921545,-50.819419130762704 -84.2228775024414,-50.787506103515625 -83.17321161908671,-49.25018091523733 -81.69201329402233,-48.46556180747464 -81.69201605493107,-46.631302282362945 -80.8304672241211,-44.78948211669922 -81.69202157674856,-42.96278323213954 -81.6920243376573,-41.128523707027846"></path>
    <polygon id="P-13-a48f31" points="-86.9309064556882,-42.137650151704854 -91.87320497097811,-41.85046370942903 -94.62676239013672,-46.61983808780435 -91.92039849250601,-50.77500022597337 -86.94845682957694,-50.95635223388672 -84.2262296585152,-46.24130193355382" style="stroke: rgb(255, 255, 255); stroke-opacity: 1; stroke-width: 0; fill: rgb(0, 0, 0); fill-opacity: 1;" transform="matrix(1,0,0,1,123.93453979492188,100.45978323156683)"></polygon>
  </svg>
  <defs id="SvgjsDefs4017"></defs>
</svg>