<svg width="100%" height="100%" version="1.1" 
  xmlns="http://www.w3.org/2000/svg" 
  xmlns:xlink="http://www.w3.org/1999/xlink" 
  xmlns:svgjs="http://svgjs.com/svgjs" 
style="stroke-linecap: round; stroke-linejoin: round; stroke-miterlimit: 20; background: rgba(21, 8, 35, 1);"
viewBox="19.515737533569336 54.17667770385742 13.60795783996582 13.442325592041016">
  <svg id="S-a2-6e511b" style="overflow: visible; pointer-events: all;">
    <path id="C-0e-df702f" d="M3.658346176147461 0C3.658346176147461 2.019096129808426 2.019096129808426 3.658346176147461 0 3.658346176147461C-2.019096129808426 3.658346176147461 -3.658346176147461 2.019096129808426 -3.658346176147461 0C-3.658346176147461 -2.019096129808426 -2.019096129808426 -3.658346176147461 0 -3.658346176147461C2.019096129808426 -3.658346176147461 3.658346176147461 -2.019096129808426 3.658346176147461 0 " transform="matrix(1,0,0,1,26.22026634216307,60.967498779296875)" style="stroke: rgb(255, 255, 255); stroke-opacity: 1; stroke-width: 0; fill: rgb(255, 255, 255); fill-opacity: 1;" cy="0" cx="0" r="3.658346176147461"></path>
    <path id="P-0f-8305bc" d="M-83.17242546637462 -40.38682204818865C-83.52196833663255 -39.887794695537224 -83.8715112068905 -39.3887673428858 -84.22105407714844 -38.889739990234375C-84.85844529270204 -38.89429957032634 -85.49583650825565 -38.898859150418296 -86.13322772380926 -38.90341873051026C-86.62669476671503 -38.65618484423053 -87.1201618096208 -38.40895095795079 -87.61362885252657 -38.16171707167106C-88.11042097126133 -38.411298988481064 -88.60721308999611 -38.660880905291066 -89.10400520873087 -38.91046282210107C-89.74435003010443 -38.908939020886386 -90.384694851478 -38.90741521967171 -91.02503967285156 -38.90589141845703C-91.37827908894752 -39.406579053291715 -91.7315185050435 -39.90726668812639 -92.08475792113946 -40.407954322961075C-92.58155003987422 -40.657536239771076 -93.07834215860899 -40.90711815658108 -93.57513427734375 -41.15670007339108C-93.57513051052253 -41.77516274662057 -93.57512674370129 -42.39362541985007 -93.57512297688007 -43.01208809307956C-93.86288970349948 -43.631441297079085 -94.15065643011887 -44.2507945010786 -94.43842315673828 -44.870147705078125C-94.15064889647643 -45.4877198475376 -93.86287463621458 -46.10529198999706 -93.57510037595273 -46.722864132456536C-93.5750966091315 -47.34132680568603 -93.57509284231027 -47.959789478915525 -93.57508907548905 -48.57825215214502C-93.07856553538828 -48.830400992676715 -92.58204199528751 -49.08254983320841 -92.08551845518674 -49.33469867374011C-91.73262316364664 -49.84047635174796 -91.37972787210651 -50.34625402975582 -91.0268325805664 -50.85203170776367C-90.38668079190498 -50.85055171081921 -89.74652900324357 -50.84907171387476 -89.10637721458214 -50.847591716930296C-88.60985367448137 -51.09974055746199 -88.1133301343806 -51.351889397993695 -87.61680659427984 -51.60403823852539C-87.12307381925838 -51.34249853593783 -86.62934104423691 -51.080958833350266 -86.13560826921545 -50.819419130762704C-85.49803134695743 -50.80878145501368 -84.86045442469943 -50.79814377926465 -84.2228775024414 -50.787506103515625C-83.87298887465651 -50.275064374089524 -83.5231002468716 -49.76262264466343 -83.17321161908671 -49.25018091523733C-82.67947884406526 -48.98864121264977 -82.18574606904379 -48.727101510062205 -81.69201329402233 -48.46556180747464C-81.69201421432524 -47.854141965770744 -81.69201513462816 -47.242722124066844 -81.69201605493107 -46.631302282362945C-81.40483311132775 -46.0173622271417 -81.11765016772442 -45.40342217192046 -80.8304672241211 -44.78948211669922C-81.11765200833025 -44.18058248851266 -81.4048367925394 -43.5716828603261 -81.69202157674856 -42.96278323213954C-81.69202249705147 -42.351363390435644 -81.69202341735439 -41.739943548731745 -81.6920243376573 -41.128523707027846L-83.17242546637462 -40.38682204818865 " transform="matrix(1,0,0,1,113.95416133181226,105.78071594238281)" style="stroke: rgb(255, 255, 255); stroke-opacity: 1; stroke-width: 0; fill: rgb(255, 255, 255); fill-opacity: 1;" points="-83.17242546637462,-40.38682204818865 -84.22105407714844,-38.889739990234375 -86.13322772380926,-38.90341873051026 -87.61362885252657,-38.16171707167106 -89.10400520873087,-38.91046282210107 -91.02503967285156,-38.90589141845703 -92.08475792113946,-40.407954322961075 -93.57513427734375,-41.15670007339108 -93.57512297688007,-43.01208809307956 -94.43842315673828,-44.870147705078125 -93.57510037595273,-46.722864132456536 -93.57508907548905,-48.57825215214502 -92.08551845518674,-49.33469867374011 -91.0268325805664,-50.85203170776367 -89.10637721458214,-50.847591716930296 -87.61680659427984,-51.60403823852539 -86.13560826921545,-50.819419130762704 -84.2228775024414,-50.787506103515625 -83.17321161908671,-49.25018091523733 -81.69201329402233,-48.46556180747464 -81.69201605493107,-46.631302282362945 -80.8304672241211,-44.78948211669922 -81.69202157674856,-42.96278323213954 -81.6920243376573,-41.128523707027846"></path>
  </svg>
  <svg id="S-c0-4d3465" style="overflow: visible; pointer-events: all;" data-disabled="false" data-hidden="false">
    <polygon id="P-13-a48f31" points="-86.9309064556882,-42.137650151704854 -91.87320497097811,-41.85046370942903 -94.62676239013672,-46.61983808780435 -91.92039849250601,-50.77500022597337 -86.94845682957694,-50.95635223388672 -84.2262296585152,-46.24130193355382" style="stroke: rgb(255, 255, 255); stroke-opacity: 1; stroke-width: 0; fill: rgb(131, 131, 131); fill-opacity: 1;" transform="matrix(1,0,0,1,115.77266311645508,107.33864974975586)"></polygon>
  </svg>
  <defs id="SvgjsDefs1132"></defs>
</svg>