<svg width="100%" height="100%" version="1.1" 
  xmlns="http://www.w3.org/2000/svg" 
  xmlns:xlink="http://www.w3.org/1999/xlink" 
  xmlns:svgjs="http://svgjs.com/svgjs" 
style="stroke-linecap: round; stroke-linejoin: round; stroke-miterlimit: 20; background: rgba(0, 0, 0, 1);"
viewBox="31.528640747070312 27.18745994567871 146.7272186279297 126.88425636291504">
  <svg id="S-82-fee079" style="overflow: visible; pointer-events: none;" data-disabled="true">
    <polygon id="P-1b-1400d0" points="-627.5629576177424,344.16207840744937 -648.5113525390625,307.8581379340177 -596.0344427371352,217.30557250976562 -554.1126231473318,217.30560129519944 -501.7962199036001,307.85530934344945 -522.7558137762222,344.1612470362875" style="stroke: rgb(255, 255, 255); stroke-opacity: 1; stroke-width: 0px; fill: rgb(96, 0, 192); fill-opacity: 1;" transform="matrix(1,0,0,1,680.0520858764648,-190.09037399291992)"></polygon>
  </svg>
  <svg id="S-e3-e08532" style="overflow: visible; pointer-events: all;">
    <polygon id="P-2e-af9bad" points="10.008911767891686,4.9359588623046875 20.461575676122067,23.03208836850006 9.99502566363772,41.112354854031246 -0.49934160709381104,22.959574626842514" style="stroke: rgb(255, 255, 255); stroke-opacity: 1; stroke-width: 0; fill: rgb(128, 0, 0); fill-opacity: 1;" transform="matrix(1,0,0,1,52.98908233642578,94.80665588378906)"></polygon>
    <polygon id="P-50-b469e7" points="151.72459439338274,-195.95030882538947 141.21633723592063,-177.92670708921986 120.25541687011719,-177.9267045305144 141.23027706228302,-214.06568908691406" style="stroke: rgb(255, 255, 255); stroke-opacity: 1; stroke-width: 0px; fill: rgb(192, 0, 0); fill-opacity: 1;" transform="matrix(1,0,0,1,-88.72677612304685,295.6930236816406)"></polygon>
    <polygon id="P-9b-81d794" points="-802.4833193915985,234.86314825820784 -791.961174370029,253.0155881997897 -854.8857572190207,253.0157135763808 -875.832763671875,216.71033250669072 -854.8858103121648,216.71023559570312 -844.3913955835654,234.86305614479403" style="stroke: rgb(255, 255, 255); stroke-opacity: 1; stroke-width: 0px; fill: rgb(64, 0, 0); fill-opacity: 1;" transform="matrix(1,0,0,1,907.3753662109377,-98.944091796875)"></polygon>
    <polygon id="P-d6-0b161e" points="-461.9732104045072,-0.36838762098790656 -440.9194225852532,-0.25132775366112065 -461.9081706565913,35.93116110504655 -503.816162109375,35.93109201996838 -493.3496152808524,17.850820868724604 -472.38253561130904,17.778245714789335" style="stroke: rgb(255, 255, 255); stroke-opacity: 1; stroke-width: 0; fill: rgb(192, 0, 0); fill-opacity: 1;" transform="matrix(1,0,0,1,566.8004760742188,99.9879760742188)"></polygon>
    <polygon id="P-a2-e64abe" points="-479.498150938945,5.5055999755859375 -469.04576902227694,23.535468038905442 -479.52609265183133,41.68806661102145 -490.00641564170934,59.84066646248985 -500.48687744140625,41.68797705635768" style="stroke: rgb(255, 255, 255); stroke-opacity: 1; stroke-width: 0; fill: rgb(128, 0, 0); fill-opacity: 1;" transform="matrix(1,0,0,1,605.3787841796875,94.2310562133789)"></polygon>
    <polygon id="P-12-2d1dc9" points="-250.4988555908203,432.6429443359375 -229.537938018481,432.6430735505621 -219.05747235579014,450.7957619443251 -240.01779174804688,450.7347412109375" style="stroke: rgb(255, 255, 255); stroke-opacity: 1; stroke-width: 0; fill: rgb(32, 0, 64); fill-opacity: 1;" transform="matrix(1,0,0,1,344.95199584960943,-387.3031311035156)"></polygon>
    <polygon id="P-3f-f5f025" points="30.998443603515625,35.89028023206453 9.980389932094186,35.93931643447254 -0.5,17.786704739604176 9.980456458425069,-0.36599737413355304" style="stroke: rgb(255, 255, 255); stroke-opacity: 1; stroke-width: 0px; fill: rgb(64, 0, 128); fill-opacity: 1;" transform="matrix(1.0000001192092896,0,0,1.0000001192092896,115.91412353515625,27.553457260131836)"></polygon>
    <polygon id="P-b2-4d262d" points="-606.5566099614924,271.7380671769806 -627.5173950195312,271.73795971136144 -596.0344427371352,217.30557250976562 -554.1126231473318,217.30560129519944 -564.6208658996939,235.45832142841041 -585.5539094793472,235.4581525538656" style="stroke: rgb(255, 255, 255); stroke-opacity: 1; stroke-width: 0px; fill: rgb(96, 0, 192); fill-opacity: 1;" transform="matrix(1,0,0,1,680.0072021484375,-190.11807250976562)"></polygon>
    <polygon id="P-66-3e9e93" points="-978.0218253615487,-830.0411943245578 -967.624956644121,-811.9439707048356 -978.0342296016233,-793.7247684861845 -999.0013427734375,-829.9180131341386 -977.9986504953342,-866.2235107421875 -967.518798828125,-848.1326904296875" style="stroke: rgb(255, 255, 255); stroke-opacity: 1; stroke-width: 0; fill: rgb(64, 0, 128); fill-opacity: 1;" transform="matrix(1,0,0,1,1072.4530029296877,911.5643310546875)"></polygon>
    <polygon id="P-95-2e7b7c" points="-705.1594919955933,468.8742014927728 -726.1265328071061,468.9468329141474 -736.5791883525219,450.85070634665755 -747.0457763671875,432.75360107421875 -726.0848562981743,432.75360427260085" style="stroke: rgb(255, 255, 255); stroke-opacity: 1; stroke-width: 0; fill: rgb(32, 0, 64); fill-opacity: 1;" transform="matrix(1,0,0,1,799.5765380859375,-351.1080322265625)"></polygon>
    <polygon id="P-d1-976d1f" points="-219.263548423293,432.52728783225575 -229.72994999881584,450.67849906704186 -250.70489501953125,450.679975440432 -240.22443272091778,432.52728271484375" style="stroke: rgb(255, 255, 255); stroke-opacity: 1; stroke-width: 0px; fill: rgb(255, 255, 85); fill-opacity: 1;" transform="matrix(1,0,0,1,376.55764770507807,-314.7607421875)"></polygon>
    <polygon id="P-3e-d890ee" points="-365.36340185267466,216.32505798339844 -344.38909115809867,216.32516544904908 -333.92266484462317,234.47933812832275 -375.8485412597656,234.47917948855292" style="stroke: rgb(255, 255, 255); stroke-opacity: 1; stroke-width: 0px; fill: rgb(174, 174, 0); fill-opacity: 1;" transform="matrix(1,0,0,1,491.21646118164057,-80.4076919555664)"></polygon>
    <polygon id="P-da-f22fa8" points="-979.5468153431418,-1633.0310782029596 -990.0132541552349,-1651.1851862883068 -979.5467341042455,-1669.336415384478 -1000.5078121801617,-1705.6417773057592 -989.928051896504,-1723.658935546875 -958.5858181862839,-1669.336415384478" style="stroke: rgb(255, 255, 255); stroke-opacity: 1; stroke-width: 0px; fill: rgb(231, 231, 0); fill-opacity: 1;" transform="matrix(1.0000001192092896,0,0,1.0000001192092896,1136.8411865234377,1787.1016845703127)"></polygon>
    <polygon id="P-fd-f9e08b" points="63.4771842956543,-831.0534530280278 42.516253468953515,-831.0534504693214 32.063699704796036,-849.0830491575923 11.009912142060532,-849.2001046374511 0.613037109375,-867.2973352373235 42.55811134759376,-867.3587646484375" style="stroke: rgb(255, 255, 255); stroke-opacity: 1; stroke-width: 0px; fill: rgb(174, 174, 0); fill-opacity: 1;" transform="matrix(1,0,0,1,93.8171005249024,948.8196411132812)"></polygon>
    <polygon id="P-7f-7cacad" points="-940.5900380924625,851.0117099146743 -951.1279423933505,869.028908663284 -993.0728759765625,869.090379011723 -982.5693359375,850.9991455078125" style="stroke: rgb(255, 255, 255); stroke-opacity: 1; stroke-width: 0px; fill: rgb(255, 255, 85); fill-opacity: 1;" transform="matrix(1,0,0,1,1087.5035400390625,-787.5675048828125)"></polygon>
  </svg>
  <defs id="SvgjsDefs3248"></defs>
</svg>